<svg width="29" height="30" viewBox="0 0 29 30" fill="none" xmlns="http://www.w3.org/2000/svg">
<path d="M27 17C28.1046 17 29 16.1046 29 15C29 13.8954 28.1046 13 27 13L27 17ZM0.585787 13.5858C-0.195263 14.3668 -0.195263 15.6332 0.585787 16.4142L13.3137 29.1421C14.0948 29.9232 15.3611 29.9232 16.1421 29.1421C16.9232 28.3611 16.9232 27.0948 16.1421 26.3137L4.82843 15L16.1421 3.68629C16.9232 2.90524 16.9232 1.63891 16.1421 0.857865C15.3611 0.0768168 14.0948 0.0768169 13.3137 0.857866L0.585787 13.5858ZM27 13L2 13L2 17L27 17L27 13Z" fill="black"/>
</svg>
