<?xml version="1.0" encoding="UTF-8"?>
<svg xmlns="http://www.w3.org/2000/svg" xmlns:xlink="http://www.w3.org/1999/xlink" width="150px" height="130px" viewBox="0 0 178 130" version="1.1">
<g id="surface1">
<path style=" stroke:none;fill-rule:nonzero;fill:rgb(94.901961%,94.901961%,94.901961%);fill-opacity:1;" d="M 160.925781 105.773438 C 160.84375 105.519531 160.214844 105.628906 160.15625 105.402344 C 160.09375 105.175781 160.695312 104.984375 161.160156 104.347656 C 161.242188 104.230469 161.765625 103.507812 161.566406 103.199219 C 161.183594 102.621094 158.527344 104.0625 157.890625 103.253906 C 157.75 103.078125 157.691406 102.773438 157.277344 102.203125 C 157.109375 101.980469 157.003906 101.871094 156.875 101.875 C 156.695312 101.878906 156.632812 102.105469 156.347656 102.515625 C 155.921875 103.128906 155.769531 103.050781 155.488281 103.554688 C 155.28125 103.929688 155.257812 104.167969 155.105469 104.183594 C 154.894531 104.203125 154.808594 103.738281 154.546875 103.71875 C 154.285156 103.703125 154.019531 104.160156 153.886719 104.519531 C 153.640625 105.195312 153.792969 105.710938 153.828125 106.226562 C 153.863281 106.785156 153.777344 107.601562 153.171875 108.652344 L 147.46875 117.769531 C 148.695312 115.910156 152.171875 110.839844 153.574219 108.980469 C 153.976562 108.445312 154.410156 107.90625 155.082031 107.804688 C 155.726562 107.707031 156.507812 108.027344 157.601562 108.007812 C 157.730469 108.007812 158.085938 107.996094 158.171875 107.804688 C 158.246094 107.648438 158.066406 107.515625 158.132812 107.367188 C 158.21875 107.171875 158.609375 107.253906 159.140625 107.125 C 159.515625 107.03125 159.769531 106.878906 159.988281 106.746094 C 160.054688 106.707031 161.035156 106.109375 160.925781 105.773438 Z M 160.925781 105.773438 "/>
<path style=" stroke:none;fill-rule:nonzero;fill:rgb(94.901961%,94.901961%,94.901961%);fill-opacity:1;" d="M 145.980469 107.902344 C 145.835938 107.867188 145.707031 108.210938 145.578125 108.175781 C 145.449219 108.136719 145.53125 107.785156 145.351562 107.375 C 145.320312 107.300781 145.117188 106.832031 144.910156 106.84375 C 144.515625 106.863281 144.453125 108.589844 143.875 108.667969 C 143.746094 108.6875 143.582031 108.628906 143.183594 108.667969 C 143.027344 108.6875 142.941406 108.707031 142.90625 108.769531 C 142.855469 108.859375 142.949219 108.957031 143.066406 109.214844 C 143.246094 109.601562 143.164062 109.65625 143.328125 109.9375 C 143.453125 110.148438 143.5625 110.230469 143.527344 110.308594 C 143.476562 110.417969 143.222656 110.328125 143.136719 110.449219 C 143.050781 110.574219 143.203125 110.835938 143.339844 111.003906 C 143.597656 111.320312 143.894531 111.394531 144.15625 111.527344 C 144.441406 111.671875 144.816406 111.949219 145.152344 112.550781 L 147.96875 117.988281 C 147.414062 116.851562 145.9375 113.675781 145.429688 112.449219 C 145.285156 112.09375 145.148438 111.722656 145.289062 111.367188 C 145.429688 111.019531 145.8125 110.726562 146.117188 110.183594 C 146.152344 110.117188 146.25 109.941406 146.183594 109.84375 C 146.128906 109.761719 146.007812 109.8125 145.957031 109.738281 C 145.886719 109.636719 146.039062 109.46875 146.128906 109.171875 C 146.191406 108.960938 146.191406 108.789062 146.1875 108.644531 C 146.1875 108.601562 146.179688 107.945312 145.980469 107.902344 Z M 145.980469 107.902344 "/>
<path style=" stroke:none;fill-rule:nonzero;fill:rgb(94.901961%,94.901961%,94.901961%);fill-opacity:1;" d="M 148.789062 109.230469 L 148.878906 108.410156 L 148.933594 108.359375 C 149.183594 108.121094 149.34375 107.867188 149.402344 107.609375 C 149.410156 107.566406 149.417969 107.523438 149.425781 107.480469 C 149.453125 107.3125 149.492188 107.105469 149.652344 106.886719 C 149.742188 106.765625 149.980469 106.492188 150.226562 106.585938 C 150.292969 106.613281 150.339844 106.65625 150.371094 106.703125 C 150.378906 106.695312 150.386719 106.683594 150.394531 106.675781 C 150.503906 106.574219 150.578125 106.535156 150.648438 106.5 C 150.703125 106.46875 150.761719 106.441406 150.855469 106.363281 C 150.898438 106.328125 150.933594 106.300781 150.960938 106.273438 C 151.046875 106.195312 151.160156 106.105469 151.308594 106.140625 C 151.472656 106.183594 151.527344 106.339844 151.5625 106.441406 C 151.628906 106.621094 151.648438 106.746094 151.660156 106.832031 C 151.667969 106.859375 151.671875 106.894531 151.675781 106.90625 C 151.710938 106.996094 152.152344 107.019531 152.320312 107.027344 C 152.691406 107.046875 153.015625 107.066406 153.09375 107.320312 C 153.148438 107.503906 153.03125 107.707031 152.738281 107.933594 C 152.644531 108.003906 152.554688 108.050781 152.472656 108.089844 C 152.523438 108.136719 152.5625 108.199219 152.566406 108.285156 C 152.570312 108.488281 152.359375 108.648438 151.941406 108.753906 C 151.839844 108.777344 151.699219 108.8125 151.515625 108.804688 C 151.429688 108.800781 151.355469 108.789062 151.289062 108.777344 C 151.28125 108.8125 151.261719 108.851562 151.230469 108.886719 C 151.136719 108.992188 150.988281 109.019531 150.785156 108.960938 C 150.558594 108.898438 150.382812 108.8125 150.222656 108.738281 C 150.085938 108.671875 149.96875 108.617188 149.871094 108.601562 C 149.683594 108.574219 149.511719 108.6875 149.308594 108.839844 Z M 148.789062 109.230469 "/>
<path style=" stroke:none;fill-rule:nonzero;fill:rgb(94.901961%,94.901961%,94.901961%);fill-opacity:1;" d="M 150.261719 104.558594 L 149.449219 104.683594 L 149.386719 104.644531 C 149.09375 104.460938 148.8125 104.371094 148.546875 104.378906 C 148.503906 104.382812 148.460938 104.382812 148.417969 104.386719 C 148.25 104.402344 148.039062 104.421875 147.785156 104.320312 C 147.648438 104.261719 147.320312 104.097656 147.351562 103.835938 C 147.359375 103.765625 147.390625 103.710938 147.425781 103.667969 C 147.417969 103.664062 147.40625 103.65625 147.394531 103.652344 C 147.269531 103.574219 147.214844 103.511719 147.160156 103.449219 C 147.117188 103.40625 147.078125 103.355469 146.976562 103.28125 C 146.933594 103.25 146.894531 103.226562 146.863281 103.203125 C 146.765625 103.140625 146.652344 103.054688 146.648438 102.898438 C 146.648438 102.730469 146.785156 102.640625 146.871094 102.578125 C 147.03125 102.46875 147.148438 102.417969 147.222656 102.382812 C 147.25 102.371094 147.28125 102.355469 147.292969 102.351562 C 147.367188 102.292969 147.277344 101.859375 147.246094 101.695312 C 147.171875 101.328125 147.105469 101.011719 147.332031 100.871094 C 147.496094 100.769531 147.71875 100.832031 148.011719 101.058594 C 148.105469 101.128906 148.175781 101.207031 148.230469 101.277344 C 148.261719 101.214844 148.3125 101.160156 148.394531 101.136719 C 148.59375 101.082031 148.796875 101.242188 149.003906 101.621094 C 149.058594 101.714844 149.125 101.84375 149.164062 102.023438 C 149.183594 102.109375 149.1875 102.183594 149.191406 102.25 C 149.230469 102.25 149.273438 102.257812 149.316406 102.277344 C 149.441406 102.34375 149.503906 102.480469 149.5 102.695312 C 149.496094 102.929688 149.457031 103.125 149.425781 103.292969 C 149.398438 103.445312 149.375 103.574219 149.382812 103.671875 C 149.40625 103.859375 149.558594 103.996094 149.757812 104.160156 L 150.265625 104.558594 Z M 150.261719 104.558594 "/>
<path style=" stroke:none;fill-rule:nonzero;fill:rgb(94.901961%,94.901961%,94.901961%);fill-opacity:1;" d="M 150.375 102.113281 L 150.460938 101.292969 L 150.515625 101.242188 C 150.765625 101.003906 150.925781 100.75 150.984375 100.492188 C 150.992188 100.449219 151 100.40625 151.007812 100.367188 C 151.035156 100.195312 151.074219 99.988281 151.234375 99.769531 C 151.324219 99.648438 151.5625 99.375 151.8125 99.46875 C 151.878906 99.496094 151.921875 99.539062 151.953125 99.585938 C 151.960938 99.578125 151.96875 99.570312 151.976562 99.558594 C 152.085938 99.457031 152.160156 99.417969 152.230469 99.382812 C 152.285156 99.351562 152.34375 99.324219 152.4375 99.246094 C 152.480469 99.214844 152.515625 99.183594 152.542969 99.15625 C 152.628906 99.078125 152.742188 98.988281 152.890625 99.023438 C 153.054688 99.070312 153.109375 99.222656 153.144531 99.324219 C 153.210938 99.503906 153.230469 99.628906 153.242188 99.714844 C 153.25 99.742188 153.253906 99.777344 153.257812 99.789062 C 153.292969 99.878906 153.734375 99.902344 153.902344 99.910156 C 154.273438 99.929688 154.597656 99.949219 154.675781 100.203125 C 154.730469 100.386719 154.613281 100.589844 154.320312 100.816406 C 154.226562 100.886719 154.136719 100.933594 154.054688 100.972656 C 154.105469 101.019531 154.144531 101.082031 154.148438 101.167969 C 154.152344 101.371094 153.941406 101.53125 153.523438 101.636719 C 153.421875 101.664062 153.28125 101.699219 153.097656 101.6875 C 153.011719 101.683594 152.9375 101.671875 152.871094 101.660156 C 152.863281 101.695312 152.84375 101.734375 152.8125 101.769531 C 152.722656 101.875 152.570312 101.902344 152.367188 101.84375 C 152.140625 101.78125 151.964844 101.695312 151.804688 101.621094 C 151.667969 101.554688 151.550781 101.5 151.453125 101.484375 C 151.265625 101.457031 151.09375 101.570312 150.890625 101.722656 Z M 150.375 102.113281 "/>
<path style=" stroke:none;fill-rule:nonzero;fill:rgb(94.901961%,94.901961%,94.901961%);fill-opacity:1;" d="M 147.738281 117.816406 L 147.59375 117.675781 L 147.597656 117.472656 L 147.59375 117.675781 L 147.394531 117.652344 C 147.394531 117.632812 147.394531 117.589844 147.394531 117.519531 C 147.386719 117.144531 147.359375 115.996094 147.519531 114.234375 C 147.632812 113.003906 147.816406 111.753906 148.074219 110.519531 C 148.328125 109.285156 148.59375 108.363281 148.808594 107.625 C 148.96875 107.066406 149.128906 106.539062 149.289062 106.023438 C 149.710938 104.648438 150.113281 103.347656 150.359375 101.867188 C 150.414062 101.535156 150.527344 100.847656 150.292969 100.03125 C 150.15625 99.5625 149.921875 99.117188 149.597656 98.714844 L 149.914062 98.460938 C 150.269531 98.90625 150.53125 99.398438 150.679688 99.921875 C 150.941406 100.820312 150.816406 101.574219 150.757812 101.933594 C 150.503906 103.441406 150.101562 104.753906 149.675781 106.144531 C 149.515625 106.65625 149.355469 107.183594 149.195312 107.738281 C 148.984375 108.46875 148.71875 109.382812 148.46875 110.601562 C 148.214844 111.820312 148.03125 113.054688 147.921875 114.269531 C 147.765625 116.011719 147.789062 117.140625 147.796875 117.511719 C 147.800781 117.710938 147.800781 117.753906 147.738281 117.816406 Z M 147.738281 117.816406 "/>
<path style=" stroke:none;fill-rule:nonzero;fill:rgb(94.901961%,94.901961%,94.901961%);fill-opacity:1;" d="M 148.734375 99.179688 C 148.71875 99.175781 148.703125 99.171875 148.6875 99.167969 C 148.355469 99.074219 148.089844 98.804688 147.898438 98.363281 C 147.804688 98.15625 147.785156 97.9375 147.742188 97.5 C 147.734375 97.433594 147.707031 97.09375 147.742188 96.644531 C 147.765625 96.351562 147.796875 96.230469 147.878906 96.140625 C 147.964844 96.035156 148.085938 95.976562 148.210938 95.945312 C 148.214844 95.90625 148.226562 95.871094 148.253906 95.832031 C 148.355469 95.683594 148.53125 95.746094 148.625 95.777344 C 148.671875 95.792969 148.730469 95.816406 148.796875 95.828125 C 148.902344 95.84375 148.964844 95.828125 149.058594 95.800781 C 149.148438 95.773438 149.261719 95.742188 149.417969 95.742188 C 149.726562 95.746094 149.953125 95.886719 150.027344 95.929688 C 150.421875 96.167969 150.558594 96.546875 150.714844 96.988281 C 150.746094 97.074219 150.851562 97.394531 150.875 97.804688 C 150.894531 98.101562 150.855469 98.222656 150.808594 98.308594 C 150.71875 98.484375 150.582031 98.566406 150.238281 98.742188 C 149.878906 98.921875 149.699219 99.015625 149.550781 99.0625 C 149.207031 99.167969 148.988281 99.238281 148.734375 99.179688 Z M 148.734375 99.179688 "/>
<path style=" stroke:none;fill-rule:nonzero;fill:rgb(94.901961%,94.901961%,94.901961%);fill-opacity:1;" d="M 30.875 105.773438 C 30.792969 105.519531 30.164062 105.628906 30.105469 105.402344 C 30.042969 105.175781 30.648438 104.984375 31.109375 104.347656 C 31.191406 104.230469 31.71875 103.507812 31.515625 103.199219 C 31.132812 102.621094 28.476562 104.0625 27.839844 103.253906 C 27.699219 103.078125 27.644531 102.773438 27.226562 102.203125 C 27.058594 101.980469 26.953125 101.871094 26.828125 101.875 C 26.648438 101.878906 26.582031 102.105469 26.296875 102.515625 C 25.875 103.128906 25.71875 103.050781 25.441406 103.554688 C 25.230469 103.929688 25.207031 104.167969 25.058594 104.183594 C 24.84375 104.203125 24.757812 103.738281 24.5 103.71875 C 24.234375 103.703125 23.96875 104.160156 23.835938 104.519531 C 23.589844 105.195312 23.742188 105.710938 23.777344 106.226562 C 23.816406 106.785156 23.726562 107.601562 23.125 108.652344 L 17.417969 117.769531 C 18.644531 115.910156 22.121094 110.839844 23.523438 108.980469 C 23.925781 108.445312 24.363281 107.90625 25.03125 107.804688 C 25.675781 107.707031 26.460938 108.027344 27.554688 108.007812 C 27.679688 108.007812 28.035156 107.996094 28.121094 107.804688 C 28.195312 107.648438 28.015625 107.515625 28.082031 107.367188 C 28.167969 107.171875 28.558594 107.253906 29.089844 107.125 C 29.464844 107.03125 29.71875 106.878906 29.9375 106.746094 C 30.003906 106.707031 30.984375 106.109375 30.875 105.773438 Z M 30.875 105.773438 "/>
<path style=" stroke:none;fill-rule:nonzero;fill:rgb(94.901961%,94.901961%,94.901961%);fill-opacity:1;" d="M 15.933594 107.902344 C 15.785156 107.867188 15.65625 108.210938 15.527344 108.175781 C 15.402344 108.136719 15.480469 107.785156 15.300781 107.375 C 15.269531 107.300781 15.066406 106.832031 14.859375 106.84375 C 14.464844 106.863281 14.40625 108.589844 13.824219 108.667969 C 13.699219 108.6875 13.53125 108.628906 13.132812 108.667969 C 12.976562 108.6875 12.890625 108.707031 12.855469 108.769531 C 12.808594 108.859375 12.898438 108.957031 13.019531 109.214844 C 13.195312 109.601562 13.113281 109.65625 13.28125 109.9375 C 13.402344 110.148438 13.511719 110.230469 13.476562 110.308594 C 13.425781 110.417969 13.171875 110.328125 13.089844 110.449219 C 13.003906 110.574219 13.152344 110.835938 13.289062 111.003906 C 13.546875 111.320312 13.84375 111.394531 14.105469 111.527344 C 14.390625 111.671875 14.765625 111.949219 15.105469 112.550781 L 17.917969 117.988281 C 17.363281 116.851562 15.886719 113.675781 15.382812 112.449219 C 15.234375 112.09375 15.097656 111.722656 15.242188 111.367188 C 15.378906 111.019531 15.761719 110.726562 16.066406 110.183594 C 16.101562 110.117188 16.199219 109.941406 16.132812 109.84375 C 16.078125 109.761719 15.960938 109.8125 15.90625 109.738281 C 15.835938 109.636719 15.988281 109.46875 16.078125 109.171875 C 16.140625 108.960938 16.140625 108.789062 16.140625 108.644531 C 16.136719 108.601562 16.128906 107.945312 15.933594 107.902344 Z M 15.933594 107.902344 "/>
<path style=" stroke:none;fill-rule:nonzero;fill:rgb(94.901961%,94.901961%,94.901961%);fill-opacity:1;" d="M 18.742188 109.230469 L 18.828125 108.410156 L 18.882812 108.359375 C 19.136719 108.121094 19.292969 107.867188 19.351562 107.609375 C 19.359375 107.566406 19.367188 107.523438 19.375 107.480469 C 19.40625 107.3125 19.441406 107.105469 19.601562 106.886719 C 19.691406 106.765625 19.933594 106.492188 20.179688 106.585938 C 20.246094 106.613281 20.289062 106.65625 20.320312 106.703125 C 20.328125 106.695312 20.335938 106.683594 20.34375 106.675781 C 20.453125 106.574219 20.527344 106.535156 20.597656 106.5 C 20.652344 106.46875 20.710938 106.441406 20.808594 106.363281 C 20.847656 106.328125 20.882812 106.300781 20.910156 106.273438 C 20.996094 106.195312 21.109375 106.105469 21.261719 106.140625 C 21.421875 106.183594 21.476562 106.339844 21.511719 106.441406 C 21.578125 106.621094 21.597656 106.746094 21.609375 106.832031 C 21.617188 106.859375 21.621094 106.894531 21.625 106.90625 C 21.660156 106.996094 22.101562 107.019531 22.269531 107.027344 C 22.640625 107.046875 22.964844 107.066406 23.042969 107.320312 C 23.097656 107.503906 22.984375 107.707031 22.6875 107.933594 C 22.597656 108.003906 22.503906 108.050781 22.425781 108.089844 C 22.472656 108.136719 22.511719 108.199219 22.515625 108.285156 C 22.519531 108.488281 22.3125 108.648438 21.894531 108.753906 C 21.789062 108.777344 21.648438 108.8125 21.464844 108.804688 C 21.378906 108.800781 21.304688 108.789062 21.242188 108.777344 C 21.230469 108.8125 21.214844 108.851562 21.179688 108.886719 C 21.089844 108.992188 20.9375 109.019531 20.734375 108.960938 C 20.507812 108.898438 20.332031 108.8125 20.175781 108.738281 C 20.035156 108.671875 19.917969 108.617188 19.820312 108.601562 C 19.636719 108.574219 19.464844 108.6875 19.257812 108.839844 Z M 18.742188 109.230469 "/>
<path style=" stroke:none;fill-rule:nonzero;fill:rgb(94.901961%,94.901961%,94.901961%);fill-opacity:1;" d="M 20.214844 104.558594 L 19.402344 104.683594 L 19.335938 104.644531 C 19.042969 104.460938 18.761719 104.371094 18.496094 104.378906 C 18.453125 104.382812 18.410156 104.382812 18.367188 104.386719 C 18.199219 104.402344 17.988281 104.421875 17.738281 104.320312 C 17.597656 104.261719 17.273438 104.097656 17.300781 103.835938 C 17.308594 103.765625 17.339844 103.710938 17.375 103.667969 C 17.367188 103.664062 17.355469 103.65625 17.347656 103.652344 C 17.21875 103.574219 17.164062 103.511719 17.109375 103.449219 C 17.070312 103.40625 17.027344 103.355469 16.925781 103.28125 C 16.882812 103.25 16.847656 103.226562 16.8125 103.203125 C 16.71875 103.140625 16.601562 103.054688 16.597656 102.898438 C 16.597656 102.730469 16.734375 102.640625 16.824219 102.578125 C 16.980469 102.46875 17.097656 102.417969 17.171875 102.382812 C 17.199219 102.371094 17.234375 102.355469 17.242188 102.351562 C 17.320312 102.292969 17.230469 101.859375 17.195312 101.695312 C 17.121094 101.328125 17.054688 101.011719 17.285156 100.871094 C 17.445312 100.769531 17.667969 100.832031 17.960938 101.058594 C 18.054688 101.128906 18.125 101.207031 18.179688 101.277344 C 18.210938 101.214844 18.265625 101.160156 18.347656 101.136719 C 18.542969 101.082031 18.746094 101.242188 18.953125 101.621094 C 19.007812 101.714844 19.078125 101.84375 19.113281 102.023438 C 19.132812 102.109375 19.136719 102.183594 19.144531 102.25 C 19.179688 102.25 19.222656 102.257812 19.265625 102.277344 C 19.390625 102.34375 19.457031 102.480469 19.449219 102.695312 C 19.445312 102.929688 19.410156 103.125 19.375 103.292969 C 19.347656 103.445312 19.324219 103.574219 19.332031 103.671875 C 19.355469 103.859375 19.507812 103.996094 19.707031 104.160156 Z M 20.214844 104.558594 "/>
<path style=" stroke:none;fill-rule:nonzero;fill:rgb(94.901961%,94.901961%,94.901961%);fill-opacity:1;" d="M 20.324219 102.113281 L 20.410156 101.292969 L 20.464844 101.242188 C 20.71875 101.003906 20.875 100.75 20.933594 100.492188 C 20.941406 100.449219 20.949219 100.40625 20.957031 100.367188 C 20.988281 100.195312 21.023438 99.988281 21.183594 99.769531 C 21.273438 99.648438 21.515625 99.375 21.761719 99.46875 C 21.828125 99.496094 21.871094 99.539062 21.902344 99.585938 C 21.910156 99.578125 21.917969 99.570312 21.929688 99.558594 C 22.035156 99.457031 22.109375 99.417969 22.179688 99.382812 C 22.234375 99.351562 22.292969 99.324219 22.390625 99.246094 C 22.429688 99.214844 22.464844 99.183594 22.492188 99.15625 C 22.582031 99.078125 22.691406 98.988281 22.84375 99.023438 C 23.003906 99.070312 23.058594 99.222656 23.09375 99.324219 C 23.160156 99.503906 23.179688 99.628906 23.195312 99.714844 C 23.199219 99.742188 23.203125 99.777344 23.207031 99.789062 C 23.242188 99.878906 23.683594 99.902344 23.851562 99.910156 C 24.222656 99.929688 24.546875 99.949219 24.625 100.203125 C 24.679688 100.386719 24.566406 100.589844 24.269531 100.816406 C 24.179688 100.886719 24.085938 100.933594 24.007812 100.972656 C 24.054688 101.019531 24.09375 101.082031 24.097656 101.167969 C 24.101562 101.371094 23.894531 101.53125 23.476562 101.636719 C 23.371094 101.664062 23.230469 101.699219 23.046875 101.6875 C 22.960938 101.683594 22.886719 101.671875 22.824219 101.660156 C 22.8125 101.695312 22.796875 101.734375 22.765625 101.769531 C 22.671875 101.875 22.519531 101.902344 22.316406 101.84375 C 22.089844 101.78125 21.914062 101.695312 21.757812 101.621094 C 21.621094 101.554688 21.5 101.5 21.402344 101.484375 C 21.21875 101.457031 21.046875 101.570312 20.839844 101.722656 Z M 20.324219 102.113281 "/>
<path style=" stroke:none;fill-rule:nonzero;fill:rgb(94.901961%,94.901961%,94.901961%);fill-opacity:1;" d="M 17.6875 117.816406 L 17.542969 117.675781 L 17.546875 117.472656 L 17.542969 117.675781 L 17.34375 117.652344 C 17.34375 117.632812 17.34375 117.589844 17.34375 117.519531 C 17.335938 117.144531 17.3125 115.996094 17.46875 114.234375 C 17.582031 113.003906 17.765625 111.753906 18.023438 110.519531 C 18.277344 109.285156 18.542969 108.363281 18.757812 107.625 C 18.917969 107.066406 19.082031 106.539062 19.238281 106.023438 C 19.660156 104.648438 20.0625 103.347656 20.308594 101.867188 C 20.363281 101.535156 20.480469 100.847656 20.242188 100.03125 C 20.105469 99.5625 19.875 99.117188 19.546875 98.714844 L 19.863281 98.460938 C 20.222656 98.90625 20.480469 99.398438 20.632812 99.921875 C 20.894531 100.820312 20.765625 101.574219 20.707031 101.933594 C 20.457031 103.441406 20.050781 104.753906 19.625 106.144531 C 19.46875 106.65625 19.304688 107.183594 19.144531 107.738281 C 18.933594 108.46875 18.671875 109.382812 18.417969 110.601562 C 18.164062 111.820312 17.980469 113.054688 17.871094 114.269531 C 17.714844 116.011719 17.738281 117.140625 17.746094 117.511719 C 17.75 117.710938 17.75 117.753906 17.6875 117.816406 Z M 17.6875 117.816406 "/>
<path style=" stroke:none;fill-rule:nonzero;fill:rgb(94.901961%,94.901961%,94.901961%);fill-opacity:1;" d="M 18.6875 99.179688 C 18.671875 99.175781 18.652344 99.171875 18.636719 99.167969 C 18.304688 99.074219 18.039062 98.804688 17.847656 98.363281 C 17.757812 98.15625 17.734375 97.9375 17.691406 97.5 C 17.6875 97.433594 17.65625 97.09375 17.691406 96.644531 C 17.714844 96.351562 17.746094 96.230469 17.828125 96.140625 C 17.914062 96.035156 18.035156 95.976562 18.160156 95.945312 C 18.164062 95.90625 18.179688 95.871094 18.203125 95.832031 C 18.308594 95.683594 18.480469 95.746094 18.574219 95.777344 C 18.621094 95.792969 18.679688 95.816406 18.75 95.828125 C 18.851562 95.84375 18.914062 95.828125 19.011719 95.800781 C 19.101562 95.773438 19.210938 95.742188 19.367188 95.742188 C 19.675781 95.746094 19.902344 95.886719 19.976562 95.929688 C 20.371094 96.167969 20.507812 96.546875 20.664062 96.988281 C 20.695312 97.074219 20.800781 97.394531 20.824219 97.804688 C 20.84375 98.101562 20.804688 98.222656 20.761719 98.308594 C 20.667969 98.484375 20.53125 98.566406 20.1875 98.742188 C 19.828125 98.921875 19.648438 99.015625 19.5 99.0625 C 19.15625 99.167969 18.941406 99.238281 18.6875 99.179688 Z M 18.6875 99.179688 "/>
<path style=" stroke:none;fill-rule:nonzero;fill:rgb(24.705882%,23.921569%,33.72549%);fill-opacity:1;" d="M 140.109375 117.902344 C 140.109375 118.058594 140.230469 118.183594 140.386719 118.183594 L 177.644531 118.183594 C 177.800781 118.183594 177.921875 118.058594 177.921875 117.902344 C 177.921875 117.746094 177.800781 117.625 177.644531 117.625 L 140.386719 117.625 C 140.230469 117.625 140.109375 117.746094 140.109375 117.902344 Z M 140.109375 117.902344 "/>
<path style=" stroke:none;fill-rule:nonzero;fill:rgb(24.705882%,23.921569%,33.72549%);fill-opacity:1;" d="M 0 117.902344 C 0 118.058594 0.125 118.183594 0.277344 118.183594 L 37.535156 118.183594 C 37.691406 118.183594 37.816406 118.058594 37.816406 117.902344 C 37.816406 117.746094 37.691406 117.625 37.535156 117.625 L 0.277344 117.625 C 0.125 117.625 0 117.746094 0 117.902344 Z M 0 117.902344 "/>
<path style=" stroke:none;fill-rule:nonzero;fill:rgb(24.705882%,23.921569%,33.72549%);fill-opacity:1;" d="M 122.816406 118.03125 L 55.6875 118.03125 L 55.6875 33.671875 C 55.6875 25.0625 58.925781 16.867188 64.804688 10.601562 C 71.21875 3.765625 79.898438 0 89.253906 0 C 107.761719 0 122.816406 15.105469 122.816406 33.671875 Z M 56.15625 117.5625 L 122.351562 117.5625 L 122.351562 33.671875 C 122.351562 15.363281 107.503906 0.46875 89.253906 0.46875 C 80.03125 0.46875 71.46875 4.179688 65.144531 10.921875 C 59.347656 17.101562 56.15625 25.183594 56.15625 33.671875 Z M 56.15625 117.5625 "/>
<path style=" stroke:none;fill-rule:nonzero;fill:rgb(24.705882%,23.921569%,33.72549%);fill-opacity:1;" d="M 89.253906 35.351562 C 89.191406 35.351562 89.132812 35.328125 89.085938 35.28125 L 64.808594 10.925781 C 64.71875 10.835938 64.71875 10.6875 64.808594 10.59375 C 64.902344 10.503906 65.050781 10.503906 65.140625 10.59375 L 89.019531 34.550781 L 89.019531 0.234375 C 89.019531 0.105469 89.125 0 89.253906 0 C 89.382812 0 89.488281 0.105469 89.488281 0.234375 L 89.488281 35.117188 C 89.488281 35.210938 89.429688 35.296875 89.34375 35.332031 C 89.3125 35.34375 89.28125 35.351562 89.253906 35.351562 Z M 89.253906 35.351562 "/>
<path style=" stroke:none;fill-rule:nonzero;fill:rgb(24.705882%,23.921569%,33.72549%);fill-opacity:1;" d="M 89.089844 34.953125 L 113.59375 10.839844 L 113.921875 11.175781 L 89.417969 35.285156 Z M 89.089844 34.953125 "/>
<path style=" stroke:none;fill-rule:nonzero;fill:rgb(24.705882%,23.921569%,33.72549%);fill-opacity:1;" d="M 55.921875 34.964844 L 122.582031 34.964844 L 122.582031 35.433594 L 55.921875 35.433594 Z M 55.921875 34.964844 "/>
<path style=" stroke:none;fill-rule:nonzero;fill:rgb(24.705882%,23.921569%,33.72549%);fill-opacity:1;" d="M 138.046875 130.03125 C 137.496094 130.03125 136.949219 129.839844 136.5 129.472656 L 122.4375 117.980469 L 122.730469 117.617188 L 136.796875 129.109375 C 137.394531 129.597656 138.199219 129.699219 138.898438 129.367188 C 139.597656 129.035156 140.035156 128.351562 140.039062 127.578125 L 140.683594 25.773438 C 140.691406 25.035156 140.308594 24.378906 139.660156 24.019531 C 139.015625 23.660156 138.261719 23.679688 137.636719 24.078125 C 128.652344 29.777344 123.097656 33.410156 122.78125 33.792969 C 122.78125 33.792969 122.800781 33.769531 122.808594 33.730469 L 122.355469 33.617188 C 122.398438 33.449219 122.476562 33.140625 137.386719 23.679688 C 138.15625 23.191406 139.09375 23.164062 139.890625 23.609375 C 140.6875 24.050781 141.160156 24.863281 141.152344 25.777344 L 140.507812 127.578125 C 140.5 128.535156 139.960938 129.382812 139.097656 129.792969 C 138.761719 129.953125 138.402344 130.03125 138.046875 130.03125 Z M 138.046875 130.03125 "/>
<path style=" stroke:none;fill-rule:nonzero;fill:rgb(24.705882%,23.921569%,33.72549%);fill-opacity:1;" d="M 122.515625 96.785156 L 122.652344 96.335938 L 140.503906 101.792969 L 140.367188 102.242188 Z M 122.515625 96.785156 "/>
<path style=" stroke:none;fill-rule:nonzero;fill:rgb(24.705882%,23.921569%,33.72549%);fill-opacity:1;" d="M 122.570312 76.261719 L 122.597656 75.792969 L 140.449219 76.734375 L 140.421875 77.203125 Z M 122.570312 76.261719 "/>
<path style=" stroke:none;fill-rule:nonzero;fill:rgb(24.705882%,23.921569%,33.72549%);fill-opacity:1;" d="M 122.527344 55.09375 L 140.703125 50.570312 L 140.816406 51.027344 L 122.640625 55.550781 Z M 122.527344 55.09375 "/>
<path style=" stroke:none;fill-rule:nonzero;fill:rgb(24.705882%,23.921569%,33.72549%);fill-opacity:1;" d="M 40.226562 130.03125 C 39.871094 130.03125 39.511719 129.953125 39.171875 129.792969 C 38.308594 129.382812 37.769531 128.535156 37.765625 127.578125 L 37.117188 25.777344 C 37.113281 24.863281 37.585938 24.050781 38.382812 23.609375 C 39.179688 23.164062 40.113281 23.191406 40.882812 23.679688 C 55.796875 33.140625 55.871094 33.449219 55.914062 33.617188 L 55.460938 33.730469 C 55.46875 33.769531 55.488281 33.792969 55.488281 33.792969 C 55.171875 33.410156 49.621094 29.777344 40.632812 24.078125 C 40.011719 23.679688 39.253906 23.660156 38.609375 24.019531 C 37.964844 24.378906 37.582031 25.035156 37.585938 25.773438 L 38.230469 127.578125 C 38.238281 128.351562 38.671875 129.035156 39.371094 129.367188 C 40.070312 129.699219 40.875 129.597656 41.476562 129.109375 L 55.539062 117.617188 L 55.835938 117.980469 L 41.769531 129.472656 C 41.320312 129.839844 40.777344 130.03125 40.226562 130.03125 Z M 40.226562 130.03125 "/>
<path style=" stroke:none;fill-rule:nonzero;fill:rgb(24.705882%,23.921569%,33.72549%);fill-opacity:1;" d="M 37.769531 101.792969 L 55.617188 96.335938 L 55.753906 96.785156 L 37.902344 102.242188 Z M 37.769531 101.792969 "/>
<path style=" stroke:none;fill-rule:nonzero;fill:rgb(24.705882%,23.921569%,33.72549%);fill-opacity:1;" d="M 37.824219 76.730469 L 55.675781 75.796875 L 55.699219 76.265625 L 37.847656 77.199219 Z M 37.824219 76.730469 "/>
<path style=" stroke:none;fill-rule:nonzero;fill:rgb(24.705882%,23.921569%,33.72549%);fill-opacity:1;" d="M 37.453125 51.027344 L 37.566406 50.570312 L 55.742188 55.09375 L 55.632812 55.550781 Z M 37.453125 51.027344 "/>
<path style=" stroke:none;fill-rule:nonzero;fill:rgb(24.705882%,23.921569%,33.72549%);fill-opacity:1;" d="M 43.757812 82.128906 C 43.757812 83.554688 42.605469 84.710938 41.183594 84.710938 C 39.765625 84.710938 38.613281 83.554688 38.613281 82.128906 C 38.613281 80.703125 39.765625 79.546875 41.183594 79.546875 C 42.605469 79.546875 43.757812 80.703125 43.757812 82.128906 Z M 43.757812 82.128906 "/>
<path style=" stroke:none;fill-rule:nonzero;fill:rgb(100%,71.372549%,71.372549%);fill-opacity:1;" d="M 74.773438 84.851562 L 67.4375 84.851562 L 67.4375 75.457031 L 74.773438 75.457031 Z M 74.773438 84.851562 "/>
<path style=" stroke:none;fill-rule:nonzero;fill:rgb(18.431373%,18.039216%,25.490196%);fill-opacity:1;" d="M 74.304688 58.546875 C 74.675781 57.847656 74.851562 57.542969 74.773438 57.140625 C 74.636719 56.429688 73.847656 56.042969 73.523438 55.886719 C 72.488281 55.382812 71.148438 55.410156 70.089844 56.042969 C 69.457031 56.421875 69.117188 56.902344 68.84375 57.296875 C 68.597656 57.648438 67.828125 58.738281 67.90625 60.113281 C 67.964844 61.148438 68.4375 61.210938 68.375 61.835938 C 68.21875 63.40625 65.214844 63.382812 64.472656 65.125 C 63.804688 66.695312 65.144531 69.304688 67.125 70.292969 C 70.144531 71.796875 73.410156 68.925781 73.992188 68.414062 C 75.402344 67.175781 76.335938 65.472656 76.023438 65.125 C 75.839844 64.921875 75.359375 65.328125 74.617188 65.125 C 73.773438 64.894531 73.324219 64.074219 73.214844 63.871094 C 72.574219 62.703125 72.949219 61.421875 73.058594 61.054688 C 73.15625 60.710938 73.539062 59.988281 74.304688 58.546875 Z M 74.304688 58.546875 "/>
<path style=" stroke:none;fill-rule:nonzero;fill:rgb(100%,71.372549%,71.372549%);fill-opacity:1;" d="M 78.234375 116.804688 L 80.371094 116.804688 L 81.390625 108.53125 L 78.234375 108.53125 Z M 78.234375 116.804688 "/>
<path style=" stroke:none;fill-rule:nonzero;fill:rgb(18.431373%,18.039216%,25.490196%);fill-opacity:1;" d="M 85.5625 116.757812 C 85.628906 116.871094 85.664062 117.234375 85.664062 117.363281 C 85.664062 117.765625 85.339844 118.09375 84.9375 118.09375 L 78.3125 118.09375 C 78.039062 118.09375 77.820312 117.871094 77.820312 117.597656 L 77.820312 117.320312 C 77.820312 117.320312 77.492188 116.488281 78.164062 115.460938 C 78.164062 115.460938 79.003906 116.265625 80.257812 115.007812 L 80.625 114.335938 L 83.300781 116.300781 L 84.785156 116.480469 C 85.109375 116.523438 85.394531 116.476562 85.5625 116.757812 Z M 85.5625 116.757812 "/>
<path style=" stroke:none;fill-rule:nonzero;fill:rgb(100%,71.372549%,71.372549%);fill-opacity:1;" d="M 65.902344 116.804688 L 68.042969 116.804688 L 69.0625 108.53125 L 65.902344 108.53125 Z M 65.902344 116.804688 "/>
<path style=" stroke:none;fill-rule:nonzero;fill:rgb(18.431373%,18.039216%,25.490196%);fill-opacity:1;" d="M 73.234375 116.757812 C 73.300781 116.871094 73.335938 117.234375 73.335938 117.363281 C 73.335938 117.765625 73.007812 118.09375 72.609375 118.09375 L 65.984375 118.09375 C 65.710938 118.09375 65.488281 117.871094 65.488281 117.597656 L 65.488281 117.320312 C 65.488281 117.320312 65.160156 116.488281 65.835938 115.460938 C 65.835938 115.460938 66.675781 116.265625 67.925781 115.007812 L 68.296875 114.335938 L 70.972656 116.300781 L 72.453125 116.480469 C 72.777344 116.523438 73.066406 116.476562 73.230469 116.757812 Z M 73.234375 116.757812 "/>
<path style=" stroke:none;fill-rule:nonzero;fill:rgb(100%,71.372549%,71.372549%);fill-opacity:1;" d="M 72.746094 61.992188 L 72.589844 66.847656 L 66.96875 67.628906 L 69.855469 61.039062 Z M 72.746094 61.992188 "/>
<path style=" stroke:none;fill-rule:nonzero;fill:rgb(100%,71.372549%,71.372549%);fill-opacity:1;" d="M 74.460938 60.269531 C 74.460938 62.085938 72.996094 63.558594 71.183594 63.558594 C 69.375 63.558594 67.90625 62.085938 67.90625 60.269531 C 67.90625 58.453125 69.375 56.984375 71.183594 56.984375 C 72.996094 56.984375 74.460938 58.453125 74.460938 60.269531 Z M 74.460938 60.269531 "/>
<path style=" stroke:none;fill-rule:nonzero;fill:rgb(18.431373%,18.039216%,25.490196%);fill-opacity:1;" d="M 67.4375 81.09375 C 67.4375 81.09375 63.925781 84.929688 66.113281 88.375 L 65.800781 99.492188 C 65.800781 99.492188 64.5 107.546875 66.007812 112.835938 L 68.609375 112.644531 L 70.480469 98.867188 L 72.355469 89.785156 L 76.726562 98.710938 C 76.726562 98.710938 76.414062 105.128906 77.972656 112.019531 L 81.40625 112.019531 L 81.09375 96.046875 L 74.710938 79.6875 Z M 67.4375 81.09375 "/>
<path style=" stroke:none;fill-rule:nonzero;fill:rgb(90.196078%,90.196078%,90.196078%);fill-opacity:1;" d="M 72.589844 64.96875 L 72.355469 64.882812 L 69.15625 63.714844 C 69.15625 63.714844 65.097656 66.847656 65.097656 68.570312 C 65.097656 70.292969 67.28125 76.554688 67.28125 76.554688 C 67.28125 76.554688 64.316406 79.6875 66.96875 79.84375 C 69.625 80 70.136719 77 74.507812 78.878906 L 75.710938 75.300781 C 75.710938 75.300781 77.582031 71.230469 76.648438 70.292969 Z M 72.589844 64.96875 "/>
<path style=" stroke:none;fill-rule:nonzero;fill:rgb(100%,71.372549%,71.372549%);fill-opacity:1;" d="M 77.304688 62.722656 C 77.5 61.808594 78.125 61.171875 78.703125 61.296875 C 79.28125 61.417969 79.59375 62.257812 79.398438 63.171875 C 79.328125 63.535156 79.167969 63.878906 78.9375 64.171875 L 78.066406 68.023438 L 76.550781 67.671875 L 77.320312 63.824219 C 77.226562 63.464844 77.222656 63.085938 77.304688 62.722656 Z M 77.304688 62.722656 "/>
<path style=" stroke:none;fill-rule:nonzero;fill:rgb(90.196078%,90.196078%,90.196078%);fill-opacity:1;" d="M 67.074219 66.71875 L 74.070312 71.144531 L 76.601562 64.101562 L 79.226562 64.792969 L 76.933594 73.007812 C 76.605469 74.183594 75.328125 74.808594 74.203125 74.34375 L 64.59375 70.359375 Z M 67.074219 66.71875 "/>
<path style=" stroke:none;fill-rule:nonzero;fill:rgb(42.352941%,38.823529%,100%);fill-opacity:1;" d="M 77.757812 66.832031 L 74.703125 63.507812 C 74.65625 63.453125 74.628906 63.378906 74.636719 63.304688 C 74.640625 63.234375 74.679688 63.164062 74.738281 63.121094 L 77.582031 60.9375 C 77.636719 60.894531 77.710938 60.875 77.785156 60.886719 C 77.855469 60.898438 77.917969 60.941406 77.957031 61.003906 L 80.429688 64.796875 C 80.503906 64.910156 80.476562 65.066406 80.367188 65.148438 L 78.109375 66.863281 C 78.085938 66.878906 78.0625 66.890625 78.035156 66.902344 C 77.941406 66.933594 77.832031 66.910156 77.757812 66.832031 Z M 77.757812 66.832031 "/>
<path style=" stroke:none;fill-rule:nonzero;fill:rgb(24.705882%,23.921569%,33.72549%);fill-opacity:1;" d="M 74.433594 63.183594 C 74.464844 63.148438 74.511719 63.097656 74.570312 63.039062 C 74.527344 63.023438 74.488281 62.992188 74.464844 62.949219 L 74.292969 62.652344 C 74.246094 62.574219 74.257812 62.476562 74.316406 62.410156 C 74.667969 62.011719 75.910156 60.679688 77.113281 60.324219 C 77.1875 60.300781 77.269531 60.324219 77.320312 60.382812 L 77.5625 60.648438 C 77.59375 60.683594 77.613281 60.722656 77.617188 60.761719 C 77.707031 60.71875 77.792969 60.679688 77.882812 60.640625 C 77.941406 60.613281 78.007812 60.625 78.050781 60.667969 L 78.164062 60.773438 C 78.238281 60.839844 78.230469 60.957031 78.152344 61.015625 L 74.734375 63.601562 C 74.65625 63.660156 74.542969 63.632812 74.5 63.546875 L 74.40625 63.363281 C 74.375 63.304688 74.386719 63.230469 74.433594 63.183594 Z M 74.433594 63.183594 "/>
<path style=" stroke:none;fill-rule:nonzero;fill:rgb(24.705882%,23.921569%,33.72549%);fill-opacity:1;" d="M 99.8125 102.113281 C 98.703125 102.785156 98.59375 103.101562 97.917969 103.378906 C 97.578125 103.519531 96.941406 103.710938 95.710938 103.535156 C 94.015625 103.296875 92.96875 102.609375 90.03125 101.003906 C 87.933594 99.859375 86.910156 99.359375 85.453125 99.105469 C 84.363281 98.914062 83.730469 98.984375 83.246094 99.105469 C 81.550781 99.527344 80.625 100.835938 80.40625 101.160156 C 79.640625 102.28125 79.542969 103.375 79.457031 104.328125 C 79.351562 105.527344 79.199219 107.261719 80.089844 108.601562 C 81.207031 110.28125 82.761719 109.539062 85.453125 111.132812 C 88.429688 112.898438 87.933594 114.640625 90.34375 115.566406 C 93.433594 116.75 96.792969 114.878906 96.972656 114.773438 C 100.167969 112.9375 100.820312 109.597656 102.496094 109.867188 C 103.492188 110.027344 103.59375 111.273438 105.175781 111.609375 C 105.472656 111.671875 106.691406 111.929688 107.542969 111.132812 C 108.066406 110.644531 108.050781 111.742188 107.78125 111.054688 C 107.433594 110.175781 106.734375 108.457031 106.28125 107.492188 C 106.039062 106.980469 106.3125 106.820312 106.125 105.4375 C 106.03125 104.757812 105.984375 104.417969 105.808594 104.011719 C 105.371094 103 104.519531 102.480469 103.914062 102.113281 C 103.179688 101.664062 102.460938 101.21875 101.546875 101.320312 C 101.027344 101.375 100.621094 101.621094 99.8125 102.113281 Z M 99.8125 102.113281 "/>
<path style=" stroke:none;fill-rule:nonzero;fill:rgb(24.705882%,23.921569%,33.72549%);fill-opacity:1;" d="M 80.5625 105.910156 C 80.28125 106.140625 80.214844 106.605469 80.089844 107.492188 C 79.972656 108.3125 80.042969 108.816406 80.089844 109.710938 C 80.15625 111.050781 80.050781 110.925781 80.089844 112.71875 C 80.121094 114.191406 80.136719 114.929688 80.246094 115.566406 C 80.441406 116.710938 80.546875 116.273438 81.507812 119.207031 C 81.703125 119.804688 81.859375 120.308594 82.296875 120.472656 C 82.847656 120.679688 83.480469 120.21875 83.558594 120.15625 C 83.695312 120.058594 84.164062 119.703125 84.191406 119.207031 C 84.230469 118.574219 83.515625 118.417969 82.929688 117.464844 C 82.5625 116.871094 82.472656 116.277344 82.296875 115.089844 C 82.128906 113.960938 82.046875 113.398438 82.296875 112.875 C 82.757812 111.921875 83.808594 111.628906 83.875 111.609375 C 84.503906 111.441406 84.707031 111.679688 85.453125 111.609375 C 86.152344 111.542969 87.300781 111.214844 87.503906 110.660156 C 88.058594 109.136719 81.898438 104.8125 80.5625 105.910156 Z M 80.5625 105.910156 "/>
<path style=" stroke:none;fill-rule:nonzero;fill:rgb(24.705882%,23.921569%,33.72549%);fill-opacity:1;" d="M 83.085938 103.695312 C 82.808594 103.925781 82.742188 104.390625 82.613281 105.277344 C 82.496094 106.097656 82.566406 106.601562 82.613281 107.492188 C 82.683594 108.832031 82.574219 108.707031 82.613281 110.5 C 82.644531 111.976562 82.664062 112.714844 82.769531 113.351562 C 82.96875 114.496094 83.070312 114.054688 84.035156 116.992188 C 84.230469 117.585938 84.382812 118.09375 84.824219 118.257812 C 85.371094 118.464844 86.003906 118.003906 86.085938 117.941406 C 86.21875 117.839844 86.6875 117.488281 86.714844 116.992188 C 86.753906 116.359375 86.042969 116.199219 85.453125 115.25 C 85.085938 114.65625 85 114.0625 84.824219 112.875 C 84.65625 111.746094 84.570312 111.179688 84.824219 110.660156 C 85.28125 109.707031 86.332031 109.410156 86.402344 109.394531 C 87.027344 109.226562 87.230469 109.460938 87.976562 109.394531 C 88.675781 109.328125 89.828125 109 90.03125 108.441406 C 90.585938 106.921875 84.425781 102.59375 83.085938 103.695312 Z M 83.085938 103.695312 "/>
<path style=" stroke:none;fill-rule:nonzero;fill:rgb(24.705882%,23.921569%,33.72549%);fill-opacity:1;" d="M 87.820312 111.449219 C 87.644531 111.722656 87.4375 112.421875 87.03125 113.824219 C 86.851562 114.449219 85.671875 118.5625 85.296875 119.839844 C 85.1875 120.207031 85.046875 120.664062 84.664062 121.105469 C 84.34375 121.476562 84.171875 121.464844 84.035156 121.738281 C 83.675781 122.453125 84.375 123.457031 84.507812 123.640625 C 84.660156 123.851562 85.378906 124.839844 86.402344 124.746094 C 86.507812 124.738281 87.195312 124.675781 87.347656 124.273438 C 87.578125 123.652344 86.226562 123.074219 86.242188 122.054688 C 86.253906 121.457031 86.730469 121.207031 87.347656 120.472656 C 88.667969 118.898438 88.105469 118.082031 89.082031 116.832031 C 90.546875 114.96875 93.269531 114.933594 93.660156 114.933594 C 94.667969 114.933594 96.070312 114.9375 96.972656 115.882812 C 98.230469 117.203125 97.710938 119.511719 98.234375 123.007812 C 98.234375 123.007812 98.320312 123.574219 98.550781 124.429688 C 98.929688 125.847656 99.234375 126.210938 99.339844 126.332031 C 99.480469 126.492188 99.898438 126.949219 100.601562 127.121094 C 100.699219 127.144531 101.148438 127.25 101.707031 127.121094 C 102.078125 127.039062 102.414062 126.960938 102.652344 126.648438 C 102.878906 126.347656 102.96875 125.890625 102.808594 125.539062 C 102.621094 125.113281 102.230469 125.179688 101.707031 124.746094 C 101.335938 124.441406 101.144531 124.015625 100.757812 123.164062 C 100.589844 122.789062 100.332031 122.214844 100.128906 121.421875 C 99.890625 120.503906 99.859375 119.796875 99.8125 118.414062 C 99.769531 117.253906 99.792969 116.285156 99.8125 115.25 C 99.835938 114.042969 99.871094 113.648438 99.8125 112.875 C 99.75 112.0625 99.691406 111.269531 99.496094 110.816406 C 98.449219 108.378906 90.132812 107.910156 87.820312 111.449219 Z M 87.820312 111.449219 "/>
<path style=" stroke:none;fill-rule:nonzero;fill:rgb(24.705882%,23.921569%,33.72549%);fill-opacity:1;" d="M 81.195312 100.6875 C 80.519531 100.3125 80.421875 99.4375 80.246094 97.835938 C 80.117188 96.671875 80.042969 95.976562 80.40625 95.148438 C 80.894531 94.023438 81.8125 93.5 81.984375 93.40625 C 82.167969 93.300781 83.394531 92.648438 84.664062 93.089844 C 84.84375 93.148438 85.3125 93.5 86.242188 94.195312 C 87.355469 95.027344 87.515625 95.1875 87.664062 95.464844 C 88.050781 96.203125 88.011719 97.199219 87.664062 97.363281 C 87.398438 97.488281 86.941406 97.136719 86.714844 96.886719 C 86.445312 96.589844 86.488281 96.40625 86.242188 96.097656 C 86.050781 95.847656 85.867188 95.761719 85.296875 95.464844 C 83.882812 94.71875 83.8125 94.621094 83.558594 94.671875 C 82.933594 94.796875 82.636719 95.5625 82.613281 95.621094 C 82.421875 96.128906 82.554688 96.59375 82.769531 97.363281 C 82.886719 97.769531 83.019531 98.085938 83.246094 98.628906 C 83.65625 99.617188 83.765625 99.691406 83.71875 99.894531 C 83.566406 100.570312 82.085938 101.179688 81.195312 100.6875 Z M 81.195312 100.6875 "/>
<path style=" stroke:none;fill-rule:nonzero;fill:rgb(42.352941%,38.823529%,100%);fill-opacity:1;" d="M 97.367188 103.457031 C 97.105469 103.5 96.980469 104.996094 97.367188 106.304688 C 97.632812 107.203125 98.167969 108.109375 98.261719 108.269531 C 98.335938 108.394531 98.410156 108.507812 98.628906 108.839844 C 99.707031 110.449219 100.25 111.257812 100.523438 111.214844 C 100.886719 111.15625 99.890625 110.289062 99.8125 109.464844 C 99.671875 107.925781 98.980469 107.734375 97.761719 105.507812 C 97.101562 104.300781 97.570312 103.421875 97.367188 103.457031 Z M 97.367188 103.457031 "/>
<path style=" stroke:none;fill-rule:nonzero;fill:rgb(18.431373%,18.039216%,25.490196%);fill-opacity:1;" d="M 102.890625 102.980469 C 103.019531 102.308594 102.269531 101.375 101.46875 101.242188 C 100.300781 101.046875 99.285156 102.605469 98.945312 103.617188 C 98.476562 105.003906 99.003906 106.195312 99.261719 106.78125 C 99.582031 107.515625 99.824219 107.566406 99.890625 107.574219 C 100.367188 107.632812 100.933594 106.753906 101.152344 105.988281 C 101.347656 105.316406 101.128906 105.222656 101.3125 104.722656 C 101.6875 103.691406 102.75 103.699219 102.890625 102.980469 Z M 102.890625 102.980469 "/>
<path style=" stroke:none;fill-rule:nonzero;fill:rgb(42.352941%,38.823529%,100%);fill-opacity:1;" d="M 97.597656 106.359375 L 66.289062 85.859375 L 66.75 85.753906 L 98.0625 106.253906 Z M 97.597656 106.359375 "/>
<path style=" stroke:none;fill-rule:nonzero;fill:rgb(100%,71.372549%,71.372549%);fill-opacity:1;" d="M 67.734375 85.605469 C 67.847656 86.597656 67.425781 87.464844 66.796875 87.535156 C 66.164062 87.605469 65.5625 86.859375 65.449219 85.863281 C 65.398438 85.464844 65.445312 85.0625 65.582031 84.6875 L 65.160156 80.464844 L 66.824219 80.300781 L 67.34375 84.488281 C 67.5625 84.824219 67.695312 85.207031 67.734375 85.605469 Z M 67.734375 85.605469 "/>
<path style=" stroke:none;fill-rule:nonzero;fill:rgb(90.196078%,90.196078%,90.196078%);fill-opacity:1;" d="M 66.929688 65.582031 L 64.125 68.148438 L 63.914062 76.753906 L 65.21875 83.226562 L 67.164062 83.011719 L 66.460938 75.546875 L 67.632812 67.304688 Z M 66.929688 65.582031 "/>
<path style=" stroke:none;fill-rule:nonzero;fill:rgb(18.431373%,18.039216%,25.490196%);fill-opacity:1;" d="M 72.746094 58.390625 C 73.117188 57.691406 73.289062 57.386719 73.214844 56.984375 C 73.078125 56.273438 72.285156 55.886719 71.964844 55.730469 C 70.929688 55.226562 69.585938 55.253906 68.53125 55.886719 C 67.894531 56.265625 67.558594 56.746094 67.28125 57.140625 C 67.035156 57.488281 66.269531 58.582031 66.347656 59.957031 C 66.40625 60.992188 66.875 61.054688 66.8125 61.679688 C 66.660156 63.25 63.652344 63.226562 62.914062 64.96875 C 62.242188 66.539062 63.582031 69.148438 65.566406 70.136719 C 68.582031 71.640625 71.847656 68.769531 72.433594 68.257812 C 73.839844 67.019531 74.773438 65.316406 74.460938 64.96875 C 74.277344 64.765625 73.796875 65.171875 73.058594 64.96875 C 72.210938 64.738281 71.761719 63.917969 71.652344 63.714844 C 71.011719 62.546875 71.386719 61.265625 71.496094 60.898438 C 71.597656 60.554688 71.980469 59.832031 72.746094 58.390625 Z M 72.746094 58.390625 "/>
<path style=" stroke:none;fill-rule:nonzero;fill:rgb(24.705882%,23.921569%,33.72549%);fill-opacity:1;" d="M 89.253906 35.351562 C 89.226562 35.351562 89.199219 35.347656 89.175781 35.339844 L 57.484375 24.390625 C 57.359375 24.347656 57.296875 24.214844 57.335938 24.09375 C 57.378906 23.972656 57.511719 23.90625 57.636719 23.949219 L 89.25 34.867188 L 120.941406 23.308594 C 121.0625 23.265625 121.199219 23.328125 121.242188 23.449219 C 121.285156 23.570312 121.222656 23.707031 121.101562 23.75 L 89.332031 35.335938 C 89.304688 35.347656 89.28125 35.351562 89.253906 35.351562 Z M 89.253906 35.351562 "/>
</g>
</svg>
