<?xml version="1.0" encoding="UTF-8"?>
<svg xmlns="http://www.w3.org/2000/svg" xmlns:xlink="http://www.w3.org/1999/xlink" width="150px" height="130px" viewBox="0 0 151 130" version="1.1">
<defs>
<filter id="alpha" filterUnits="objectBoundingBox" x="0%" y="0%" width="100%" height="100%">
  <feColorMatrix type="matrix" in="SourceGraphic" values="0 0 0 0 1 0 0 0 0 1 0 0 0 0 1 0 0 0 1 0"/>
</filter>
<mask id="mask0">
  <g filter="url(#alpha)">
<rect x="0" y="0" width="151" height="130" style="fill:rgb(0%,0%,0%);fill-opacity:0.101961;stroke:none;"/>
  </g>
</mask>
<clipPath id="clip1">
  <rect x="0" y="0" width="151" height="130"/>
</clipPath>
<g id="surface5" clip-path="url(#clip1)">
<path style=" stroke:none;fill-rule:nonzero;fill:rgb(0%,0%,0%);fill-opacity:1;" d="M 62.578125 44.640625 C 61.070312 48.59375 56.449219 51.46875 50.988281 51.46875 C 45.523438 51.46875 40.90625 48.59375 39.394531 44.640625 C 46.101562 39.003906 55.875 39.003906 62.578125 44.640625 Z M 62.578125 44.640625 "/>
</g>
<mask id="mask1">
  <g filter="url(#alpha)">
<rect x="0" y="0" width="151" height="130" style="fill:rgb(0%,0%,0%);fill-opacity:0.101961;stroke:none;"/>
  </g>
</mask>
<clipPath id="clip2">
  <rect x="0" y="0" width="151" height="130"/>
</clipPath>
<g id="surface8" clip-path="url(#clip2)">
<path style=" stroke:none;fill-rule:nonzero;fill:rgb(0%,0%,0%);fill-opacity:1;" d="M 134.328125 64.320312 L 126.988281 73.871094 C 126.988281 73.871094 133.75 68.207031 134.328125 64.320312 Z M 134.328125 64.320312 "/>
</g>
<mask id="mask2">
  <g filter="url(#alpha)">
<rect x="0" y="0" width="151" height="130" style="fill:rgb(0%,0%,0%);fill-opacity:0.101961;stroke:none;"/>
  </g>
</mask>
<clipPath id="clip3">
  <rect x="0" y="0" width="151" height="130"/>
</clipPath>
<g id="surface11" clip-path="url(#clip3)">
<path style=" stroke:none;fill-rule:nonzero;fill:rgb(0%,0%,0%);fill-opacity:1;" d="M 127.28125 53.742188 L 127.351562 62.765625 L 123.085938 69.179688 L 126.578125 61.988281 Z M 127.28125 53.742188 "/>
</g>
</defs>
<g id="surface1">
<path style=" stroke:none;fill-rule:nonzero;fill:rgb(94.901961%,94.901961%,94.901961%);fill-opacity:1;" d="M 151 123.976562 C 151 120.648438 137.980469 117.953125 121.925781 117.953125 C 105.867188 117.953125 92.847656 120.648438 92.847656 123.976562 C 92.847656 127.304688 105.867188 130 121.925781 130 C 137.980469 130 151 127.304688 151 123.976562 Z M 151 123.976562 "/>
<path style=" stroke:none;fill-rule:nonzero;fill:rgb(90.196078%,90.196078%,90.196078%);fill-opacity:1;" d="M 8.890625 75.789062 C 9.066406 76.195312 9.25 76.605469 9.4375 77.007812 L 9.035156 77.195312 C 8.84375 76.789062 8.65625 76.375 8.484375 75.964844 Z M 8.890625 75.789062 "/>
<path style=" stroke:none;fill-rule:nonzero;fill:rgb(90.196078%,90.196078%,90.196078%);fill-opacity:1;" d="M 80.851562 43.40625 C 81.105469 43.949219 81.347656 44.503906 81.578125 45.054688 L 81.164062 45.222656 C 80.824219 44.402344 80.445312 43.574219 80.050781 42.773438 L 80.449219 42.574219 C 80.585938 42.847656 80.71875 43.125 80.851562 43.40625 Z M 79.15625 40.175781 L 78.769531 40.402344 C 78.320312 39.628906 77.835938 38.863281 77.335938 38.125 L 77.703125 37.871094 C 78.210938 38.617188 78.699219 39.394531 79.15625 40.175781 Z M 82.535156 47.601562 C 82.824219 48.460938 83.089844 49.339844 83.316406 50.210938 L 82.886719 50.324219 C 82.660156 49.464844 82.398438 48.59375 82.113281 47.746094 Z M 76.097656 35.675781 L 75.746094 35.949219 C 75.195312 35.25 74.613281 34.554688 74.011719 33.894531 L 74.34375 33.59375 C 74.949219 34.261719 75.539062 34.964844 76.097656 35.675781 Z M 83.917969 52.871094 C 84.089844 53.757812 84.226562 54.664062 84.335938 55.5625 L 83.894531 55.617188 C 83.789062 54.726562 83.648438 53.832031 83.480469 52.953125 Z M 72.449219 31.636719 L 72.140625 31.960938 C 71.496094 31.339844 70.824219 30.734375 70.144531 30.160156 L 70.429688 29.820312 C 71.121094 30.398438 71.800781 31.011719 72.449219 31.636719 Z M 84.566406 58.28125 C 84.613281 59.1875 84.628906 60.105469 84.609375 61.011719 L 84.164062 61.003906 C 84.179688 60.109375 84.167969 59.199219 84.121094 58.304688 Z M 68.289062 28.144531 L 68.027344 28.503906 C 67.304688 27.980469 66.554688 27.472656 65.800781 27 L 66.035156 26.621094 C 66.800781 27.097656 67.558594 27.613281 68.289062 28.144531 Z M 84.464844 63.734375 C 84.386719 64.636719 84.277344 65.546875 84.136719 66.441406 L 83.695312 66.371094 C 83.835938 65.488281 83.945312 64.589844 84.023438 63.695312 Z M 63.683594 25.253906 L 63.476562 25.648438 C 62.6875 25.226562 61.878906 24.824219 61.0625 24.457031 L 61.246094 24.050781 C 62.070312 24.421875 62.890625 24.828125 63.683594 25.253906 Z M 83.621094 69.121094 C 83.421875 70 83.1875 70.886719 82.925781 71.753906 L 82.5 71.625 C 82.757812 70.769531 82.988281 69.890625 83.1875 69.019531 Z M 58.730469 23.015625 L 58.578125 23.433594 C 57.738281 23.125 56.882812 22.839844 56.023438 22.585938 L 56.152344 22.15625 C 57.015625 22.414062 57.886719 22.703125 58.730469 23.015625 Z M 82.054688 74.335938 C 81.738281 75.183594 81.382812 76.03125 81.007812 76.851562 L 80.605469 76.667969 C 80.976562 75.851562 81.324219 75.015625 81.636719 74.179688 Z M 53.519531 21.476562 L 53.421875 21.910156 C 52.550781 21.71875 51.660156 21.550781 50.777344 21.417969 L 50.84375 20.976562 C 51.738281 21.109375 52.636719 21.277344 53.519531 21.476562 Z M 79.796875 79.289062 C 79.367188 80.085938 78.902344 80.875 78.417969 81.640625 L 78.042969 81.398438 C 78.519531 80.644531 78.980469 79.863281 79.40625 79.078125 Z M 48.140625 20.660156 L 48.105469 21.105469 C 47.214844 21.03125 46.3125 20.988281 45.417969 20.976562 L 45.425781 20.53125 C 46.328125 20.542969 47.242188 20.585938 48.140625 20.660156 Z M 76.886719 83.886719 C 76.351562 84.617188 75.785156 85.335938 75.203125 86.023438 L 74.863281 85.734375 C 75.4375 85.054688 76 84.34375 76.527344 83.621094 Z M 42.703125 20.589844 L 42.726562 21.035156 C 41.835938 21.085938 40.933594 21.167969 40.046875 21.28125 L 39.992188 20.835938 C 40.886719 20.722656 41.800781 20.640625 42.703125 20.589844 Z M 73.378906 88.039062 C 72.75 88.6875 72.089844 89.324219 71.417969 89.925781 L 71.121094 89.59375 C 71.785156 88.996094 72.4375 88.371094 73.058594 87.726562 Z M 37.308594 21.269531 L 37.394531 21.707031 C 36.519531 21.882812 35.636719 22.085938 34.777344 22.320312 L 34.660156 21.886719 C 35.53125 21.652344 36.421875 21.445312 37.308594 21.269531 Z M 69.332031 91.671875 C 68.617188 92.226562 67.878906 92.765625 67.128906 93.269531 L 66.878906 92.898438 C 67.621094 92.402344 68.351562 91.871094 69.054688 91.320312 Z M 32.0625 22.6875 L 32.207031 23.109375 C 31.363281 23.402344 30.519531 23.726562 29.695312 24.074219 L 29.523438 23.664062 C 30.355469 23.308594 31.210938 22.980469 32.0625 22.6875 Z M 64.824219 94.714844 C 64.042969 95.164062 63.234375 95.597656 62.425781 95.996094 L 62.226562 95.59375 C 63.03125 95.199219 63.828125 94.773438 64.597656 94.328125 Z M 27.257812 25.207031 C 26.460938 25.609375 25.667969 26.046875 24.898438 26.5 L 24.671875 26.117188 C 25.449219 25.65625 26.25 25.214844 27.054688 24.808594 Z M 22.636719 27.953125 C 21.898438 28.460938 21.171875 29 20.476562 29.558594 L 20.199219 29.207031 C 20.902344 28.644531 21.640625 28.101562 22.382812 27.585938 Z M 18.433594 31.308594 C 17.777344 31.914062 17.132812 32.546875 16.519531 33.195312 L 16.195312 32.886719 C 16.816406 32.230469 17.46875 31.589844 18.132812 30.980469 Z M 14.734375 35.207031 C 14.167969 35.898438 13.613281 36.613281 13.09375 37.339844 L 12.734375 37.078125 C 13.257812 36.347656 13.816406 35.621094 14.390625 34.921875 Z M 11.605469 39.582031 C 11.132812 40.34375 10.683594 41.128906 10.269531 41.917969 L 9.875 41.710938 C 10.296875 40.910156 10.75 40.117188 11.226562 39.347656 Z M 9.097656 44.34375 C 8.734375 45.160156 8.394531 46 8.089844 46.84375 L 7.671875 46.691406 C 7.980469 45.839844 8.324219 44.988281 8.6875 44.164062 Z M 7.257812 49.40625 C 7.007812 50.265625 6.789062 51.144531 6.597656 52.019531 L 6.164062 51.925781 C 6.355469 51.039062 6.578125 50.152344 6.828125 49.28125 Z M 6.121094 54.671875 C 5.992188 55.558594 5.890625 56.460938 5.824219 57.351562 L 5.378906 57.316406 C 5.449219 56.417969 5.550781 55.503906 5.679688 54.605469 Z M 5.710938 60.046875 C 5.707031 60.941406 5.730469 61.847656 5.785156 62.742188 L 5.339844 62.769531 C 5.285156 61.867188 5.261719 60.949219 5.265625 60.042969 Z M 6.046875 65.425781 C 6.160156 66.3125 6.3125 67.207031 6.488281 68.085938 L 6.050781 68.175781 C 5.871094 67.289062 5.722656 66.382812 5.601562 65.484375 Z M 7.113281 70.707031 C 7.347656 71.566406 7.621094 72.433594 7.914062 73.277344 L 7.496094 73.425781 C 7.195312 72.570312 6.921875 71.695312 6.683594 70.824219 Z M 7.113281 70.707031 "/>
<path style=" stroke:none;fill-rule:nonzero;fill:rgb(90.196078%,90.196078%,90.196078%);fill-opacity:1;" d="M 59.714844 96.722656 L 59.882812 97.136719 C 59.464844 97.308594 59.042969 97.472656 58.628906 97.625 L 58.476562 97.207031 C 58.886719 97.054688 59.304688 96.894531 59.714844 96.722656 Z M 59.714844 96.722656 "/>
<path style=" stroke:none;fill-rule:nonzero;fill:rgb(24.705882%,23.921569%,33.72549%);fill-opacity:1;" d="M 80.664062 78.023438 C 80.621094 77.949219 79.570312 76.195312 79.207031 72.550781 C 78.875 69.203125 79.089844 63.566406 82.003906 55.703125 C 87.53125 40.804688 80.730469 28.78125 80.664062 28.664062 L 81 28.46875 C 81.015625 28.496094 82.769531 31.5625 83.808594 36.441406 C 85.175781 42.914062 84.675781 49.640625 82.371094 55.835938 C 76.851562 70.710938 80.953125 77.75 80.996094 77.820312 Z M 80.664062 78.023438 "/>
<path style=" stroke:none;fill-rule:nonzero;fill:rgb(42.352941%,38.823529%,100%);fill-opacity:1;" d="M 81.023438 25.261719 C 81.023438 26.65625 79.894531 27.789062 78.503906 27.789062 C 77.113281 27.789062 75.984375 26.65625 75.984375 25.261719 C 75.984375 23.867188 77.113281 22.734375 78.503906 22.734375 C 79.894531 22.734375 81.023438 23.867188 81.023438 25.261719 Z M 81.023438 25.261719 "/>
<path style=" stroke:none;fill-rule:nonzero;fill:rgb(24.705882%,23.921569%,33.72549%);fill-opacity:1;" d="M 88.972656 34.589844 C 88.972656 35.984375 87.84375 37.113281 86.453125 37.113281 C 85.058594 37.113281 83.933594 35.984375 83.933594 34.589844 C 83.933594 33.195312 85.058594 32.0625 86.453125 32.0625 C 87.84375 32.0625 88.972656 33.195312 88.972656 34.589844 Z M 88.972656 34.589844 "/>
<path style=" stroke:none;fill-rule:nonzero;fill:rgb(42.352941%,38.823529%,100%);fill-opacity:1;" d="M 83.542969 40.808594 C 83.542969 42.203125 82.417969 43.332031 81.023438 43.332031 C 79.632812 43.332031 78.503906 42.203125 78.503906 40.808594 C 78.503906 39.410156 79.632812 38.28125 81.023438 38.28125 C 82.417969 38.28125 83.542969 39.410156 83.542969 40.808594 Z M 83.542969 40.808594 "/>
<path style=" stroke:none;fill-rule:nonzero;fill:rgb(42.352941%,38.823529%,100%);fill-opacity:1;" d="M 90.136719 46.054688 C 90.136719 47.449219 89.007812 48.578125 87.613281 48.578125 C 86.222656 48.578125 85.09375 47.449219 85.09375 46.054688 C 85.09375 44.660156 86.222656 43.527344 87.613281 43.527344 C 89.007812 43.527344 90.136719 44.660156 90.136719 46.054688 Z M 90.136719 46.054688 "/>
<path style=" stroke:none;fill-rule:nonzero;fill:rgb(24.705882%,23.921569%,33.72549%);fill-opacity:1;" d="M 81.605469 54.214844 C 81.605469 55.609375 80.476562 56.742188 79.085938 56.742188 C 77.695312 56.742188 76.566406 55.609375 76.566406 54.214844 C 76.566406 52.820312 77.695312 51.6875 79.085938 51.6875 C 80.476562 51.6875 81.605469 52.820312 81.605469 54.214844 Z M 81.605469 54.214844 "/>
<path style=" stroke:none;fill-rule:nonzero;fill:rgb(24.705882%,23.921569%,33.72549%);fill-opacity:1;" d="M 82.1875 78.117188 C 82.1875 78.117188 79.667969 71.898438 87.226562 67.234375 Z M 82.1875 78.117188 "/>
<path style=" stroke:none;fill-rule:nonzero;fill:rgb(24.705882%,23.921569%,33.72549%);fill-opacity:1;" d="M 79.089844 78.003906 C 79.089844 78.003906 77.941406 71.390625 69.066406 71.449219 Z M 79.089844 78.003906 "/>
<path style=" stroke:none;fill-rule:nonzero;fill:rgb(24.705882%,23.921569%,33.72549%);fill-opacity:1;" d="M 62.453125 31.644531 C 62.265625 31.601562 62.074219 31.703125 62.003906 31.882812 C 61.933594 32.0625 62.007812 32.265625 62.179688 32.359375 C 63.492188 33.09375 64.652344 34.085938 65.582031 35.269531 C 69.929688 40.800781 68.410156 49.265625 62.195312 54.175781 C 59.433594 56.394531 55.992188 57.585938 52.453125 57.550781 C 56.625 58.730469 61.554688 57.800781 65.527344 54.664062 C 71.742188 49.753906 73.261719 41.289062 68.914062 35.761719 C 67.28125 33.699219 65.007812 32.25 62.453125 31.644531 Z M 62.453125 31.644531 "/>
<path style=" stroke:none;fill-rule:nonzero;fill:rgb(42.352941%,38.823529%,100%);fill-opacity:1;" d="M 65.582031 35.355469 C 69.929688 40.882812 68.410156 49.347656 62.195312 54.257812 C 59.914062 56.078125 57.171875 57.21875 54.277344 57.550781 C 57.734375 57.53125 61.082031 56.339844 63.78125 54.175781 C 70 49.265625 71.515625 40.800781 67.171875 35.269531 C 65.9375 33.707031 64.320312 32.488281 62.480469 31.738281 L 62.449219 31.730469 C 62.261719 31.6875 62.074219 31.789062 62.003906 31.96875 C 61.9375 32.148438 62.011719 32.351562 62.179688 32.441406 C 63.496094 33.179688 64.652344 34.167969 65.582031 35.355469 Z M 65.582031 35.355469 "/>
<path style=" stroke:none;fill-rule:nonzero;fill:rgb(42.352941%,38.823529%,100%);fill-opacity:1;" d="M 46.308594 26.816406 L 51.441406 35.722656 L 41.179688 35.722656 L 43.742188 31.269531 Z M 46.308594 26.816406 "/>
<path style=" stroke:none;fill-rule:nonzero;fill:rgb(42.352941%,38.823529%,100%);fill-opacity:1;" d="M 55.664062 26.816406 L 60.796875 35.722656 L 50.535156 35.722656 L 53.101562 31.269531 Z M 55.664062 26.816406 "/>
<path style=" stroke:none;fill-rule:nonzero;fill:rgb(24.705882%,23.921569%,33.72549%);fill-opacity:1;" d="M 46.011719 29.140625 L 47.59375 31.886719 L 49.179688 34.636719 L 42.847656 34.636719 L 44.429688 31.886719 Z M 46.011719 29.140625 "/>
<path style=" stroke:none;fill-rule:nonzero;fill:rgb(24.705882%,23.921569%,33.72549%);fill-opacity:1;" d="M 55.628906 29.140625 L 57.210938 31.886719 L 58.792969 34.636719 L 52.464844 34.636719 L 54.046875 31.886719 Z M 55.628906 29.140625 "/>
<path style=" stroke:none;fill-rule:nonzero;fill:rgb(24.705882%,23.921569%,33.72549%);fill-opacity:1;" d="M 69.03125 58.503906 C 69.03125 66.984375 63.15625 74.328125 54.894531 76.164062 C 46.636719 78.003906 38.210938 73.839844 34.632812 66.15625 C 31.054688 58.46875 33.285156 49.324219 39.996094 44.15625 C 46.707031 38.992188 56.097656 39.191406 62.578125 44.640625 C 66.667969 48.078125 69.03125 53.152344 69.03125 58.503906 Z M 69.03125 58.503906 "/>
<use xlink:href="#surface5" mask="url(#mask0)"/>
<path style=" stroke:none;fill-rule:nonzero;fill:rgb(24.705882%,23.921569%,33.72549%);fill-opacity:1;" d="M 63.101562 40.414062 C 63.101562 35.09375 57.675781 30.785156 50.988281 30.785156 C 44.296875 30.785156 38.875 35.09375 38.875 40.414062 C 38.875 45.734375 44.296875 50.046875 50.988281 50.046875 C 57.675781 50.046875 63.101562 45.734375 63.101562 40.414062 Z M 63.101562 40.414062 "/>
<path style=" stroke:none;fill-rule:nonzero;fill:rgb(100%,100%,100%);fill-opacity:1;" d="M 47.5625 39.074219 C 47.5625 40.324219 46.550781 41.335938 45.308594 41.335938 C 44.0625 41.335938 43.050781 40.324219 43.050781 39.074219 C 43.050781 37.824219 44.0625 36.8125 45.308594 36.8125 C 46.550781 36.8125 47.5625 37.824219 47.5625 39.074219 Z M 47.5625 39.074219 "/>
<path style=" stroke:none;fill-rule:nonzero;fill:rgb(100%,100%,100%);fill-opacity:1;" d="M 58.925781 39.074219 C 58.925781 40.324219 57.914062 41.335938 56.667969 41.335938 C 55.421875 41.335938 54.414062 40.324219 54.414062 39.074219 C 54.414062 37.824219 55.421875 36.8125 56.667969 36.8125 C 57.914062 36.8125 58.925781 37.824219 58.925781 39.074219 Z M 58.925781 39.074219 "/>
<path style=" stroke:none;fill-rule:nonzero;fill:rgb(24.705882%,23.921569%,33.72549%);fill-opacity:1;" d="M 46.726562 39.074219 C 46.726562 39.859375 46.089844 40.5 45.308594 40.5 C 44.523438 40.5 43.886719 39.859375 43.886719 39.074219 C 43.886719 38.289062 44.523438 37.652344 45.308594 37.652344 C 46.089844 37.652344 46.726562 38.289062 46.726562 39.074219 Z M 46.726562 39.074219 "/>
<path style=" stroke:none;fill-rule:nonzero;fill:rgb(24.705882%,23.921569%,33.72549%);fill-opacity:1;" d="M 58.089844 39.074219 C 58.089844 39.859375 57.453125 40.5 56.667969 40.5 C 55.882812 40.5 55.25 39.859375 55.25 39.074219 C 55.25 38.289062 55.882812 37.652344 56.667969 37.652344 C 57.453125 37.652344 58.089844 38.289062 58.089844 39.074219 Z M 58.089844 39.074219 "/>
<path style=" stroke:none;fill-rule:nonzero;fill:rgb(42.352941%,38.823529%,100%);fill-opacity:1;" d="M 48.871094 42.257812 C 48.871094 42.488281 48.683594 42.675781 48.453125 42.675781 C 48.222656 42.675781 48.035156 42.488281 48.035156 42.257812 C 48.035156 42.023438 48.222656 41.835938 48.453125 41.835938 C 48.683594 41.835938 48.871094 42.023438 48.871094 42.257812 Z M 48.871094 42.257812 "/>
<path style=" stroke:none;fill-rule:nonzero;fill:rgb(42.352941%,38.823529%,100%);fill-opacity:1;" d="M 48.292969 42.148438 C 47.472656 42.523438 46.933594 43.28125 46.070312 43.609375 C 45.195312 43.941406 44.230469 43.957031 43.339844 43.660156 C 43.1875 43.609375 43.121094 43.851562 43.273438 43.902344 C 44.164062 44.199219 45.125 44.195312 46.015625 43.894531 C 46.4375 43.75 46.832031 43.542969 47.183594 43.273438 C 47.59375 42.960938 47.945312 42.582031 48.421875 42.367188 C 48.566406 42.300781 48.441406 42.082031 48.292969 42.148438 Z M 48.292969 42.148438 "/>
<path style=" stroke:none;fill-rule:nonzero;fill:rgb(42.352941%,38.823529%,100%);fill-opacity:1;" d="M 48.621094 42.042969 C 48.203125 42.140625 47.796875 42.292969 47.417969 42.5 C 46.984375 42.707031 46.515625 42.839844 46.035156 42.886719 C 45.125 42.96875 44.210938 42.738281 43.445312 42.230469 C 43.3125 42.144531 43.183594 42.359375 43.320312 42.449219 C 44.085938 42.953125 44.992188 43.199219 45.90625 43.148438 C 46.351562 43.125 46.785156 43.03125 47.199219 42.867188 C 47.699219 42.667969 48.152344 42.378906 48.6875 42.285156 C 48.84375 42.257812 48.777344 42.015625 48.621094 42.042969 Z M 48.621094 42.042969 "/>
<path style=" stroke:none;fill-rule:nonzero;fill:rgb(42.352941%,38.823529%,100%);fill-opacity:1;" d="M 48.394531 41.878906 C 47.757812 42.484375 47.492188 43.355469 46.816406 43.941406 C 46.089844 44.566406 45.160156 44.917969 44.199219 44.925781 C 44.132812 44.925781 44.078125 44.984375 44.078125 45.050781 C 44.078125 45.117188 44.132812 45.175781 44.199219 45.175781 C 45.128906 45.167969 46.035156 44.859375 46.773438 44.296875 C 47.109375 44.042969 47.402344 43.738281 47.644531 43.394531 C 47.960938 42.949219 48.171875 42.441406 48.574219 42.058594 C 48.691406 41.945312 48.511719 41.769531 48.394531 41.878906 Z M 48.394531 41.878906 "/>
<path style=" stroke:none;fill-rule:nonzero;fill:rgb(42.352941%,38.823529%,100%);fill-opacity:1;" d="M 53.269531 42.257812 C 53.269531 42.488281 53.082031 42.675781 52.851562 42.675781 C 52.621094 42.675781 52.433594 42.488281 52.433594 42.257812 C 52.433594 42.023438 52.621094 41.835938 52.851562 41.835938 C 53.082031 41.835938 53.269531 42.023438 53.269531 42.257812 Z M 53.269531 42.257812 "/>
<path style=" stroke:none;fill-rule:nonzero;fill:rgb(42.352941%,38.823529%,100%);fill-opacity:1;" d="M 52.886719 42.367188 C 53.355469 42.582031 53.707031 42.953125 54.109375 43.261719 C 54.46875 43.535156 54.867188 43.75 55.292969 43.894531 C 56.179688 44.195312 57.144531 44.199219 58.03125 43.902344 C 58.183594 43.851562 58.121094 43.609375 57.964844 43.660156 C 57.078125 43.957031 56.113281 43.941406 55.234375 43.609375 C 54.375 43.28125 53.832031 42.523438 53.011719 42.148438 C 52.867188 42.082031 52.738281 42.300781 52.886719 42.367188 Z M 52.886719 42.367188 "/>
<path style=" stroke:none;fill-rule:nonzero;fill:rgb(42.352941%,38.823529%,100%);fill-opacity:1;" d="M 52.621094 42.285156 C 53.136719 42.375 53.570312 42.644531 54.046875 42.84375 C 54.476562 43.019531 54.933594 43.125 55.402344 43.148438 C 56.316406 43.199219 57.222656 42.953125 57.988281 42.449219 C 58.121094 42.359375 57.996094 42.144531 57.859375 42.230469 C 57.097656 42.738281 56.183594 42.96875 55.269531 42.886719 C 54.789062 42.839844 54.324219 42.707031 53.886719 42.5 C 53.507812 42.292969 53.105469 42.140625 52.6875 42.042969 C 52.527344 42.015625 52.460938 42.257812 52.621094 42.285156 Z M 52.621094 42.285156 "/>
<path style=" stroke:none;fill-rule:nonzero;fill:rgb(42.352941%,38.823529%,100%);fill-opacity:1;" d="M 52.734375 42.058594 C 53.136719 42.4375 53.34375 42.949219 53.660156 43.394531 C 53.90625 43.738281 54.199219 44.042969 54.53125 44.296875 C 55.273438 44.859375 56.175781 45.167969 57.105469 45.175781 C 57.171875 45.175781 57.226562 45.117188 57.226562 45.050781 C 57.226562 44.984375 57.171875 44.925781 57.105469 44.925781 C 56.144531 44.917969 55.21875 44.570312 54.488281 43.941406 C 53.816406 43.351562 53.546875 42.484375 52.910156 41.878906 C 52.792969 41.769531 52.617188 41.945312 52.734375 42.058594 Z M 52.734375 42.058594 "/>
<path style=" stroke:none;fill-rule:nonzero;fill:rgb(24.705882%,23.921569%,33.72549%);fill-opacity:1;" d="M 48.648438 75.925781 C 48.648438 74.859375 47.152344 73.996094 45.308594 73.996094 C 43.460938 73.996094 41.964844 74.859375 41.964844 75.925781 C 41.964844 76.988281 43.460938 77.851562 45.308594 77.851562 C 47.152344 77.851562 48.648438 76.988281 48.648438 75.925781 Z M 48.648438 75.925781 "/>
<path style=" stroke:none;fill-rule:nonzero;fill:rgb(24.705882%,23.921569%,33.72549%);fill-opacity:1;" d="M 60.011719 75.925781 C 60.011719 74.859375 58.515625 73.996094 56.667969 73.996094 C 54.824219 73.996094 53.328125 74.859375 53.328125 75.925781 C 53.328125 76.988281 54.824219 77.851562 56.667969 77.851562 C 58.515625 77.851562 60.011719 76.988281 60.011719 75.925781 Z M 60.011719 75.925781 "/>
<path style=" stroke:none;fill-rule:nonzero;fill:rgb(42.352941%,38.823529%,100%);fill-opacity:1;" d="M 53.410156 42.171875 C 53.410156 41.292969 52.175781 40.582031 50.652344 40.582031 C 49.128906 40.582031 47.894531 41.292969 47.894531 42.171875 C 47.894531 43.050781 49.128906 43.765625 50.652344 43.765625 C 52.175781 43.765625 53.410156 43.050781 53.410156 42.171875 Z M 53.410156 42.171875 "/>
<path style=" stroke:none;fill-rule:nonzero;fill:rgb(94.901961%,94.901961%,94.901961%);fill-opacity:1;" d="M 0 0 L 0 108.042969 L 144.410156 108.042969 L 144.410156 0 Z M 18.609375 1.359375 C 19.894531 1.359375 20.933594 2.402344 20.933594 3.691406 C 20.933594 4.980469 19.894531 6.023438 18.609375 6.023438 C 17.324219 6.023438 16.28125 4.980469 16.28125 3.691406 C 16.28125 2.402344 17.324219 1.359375 18.609375 1.359375 Z M 4.652344 6.023438 C 3.367188 6.023438 2.324219 4.980469 2.324219 3.691406 C 2.324219 2.402344 3.367188 1.359375 4.652344 1.359375 C 5.9375 1.359375 6.976562 2.402344 6.976562 3.691406 C 6.976562 4.980469 5.9375 6.023438 4.652344 6.023438 Z M 9.304688 3.691406 C 9.304688 2.402344 10.34375 1.359375 11.628906 1.359375 C 12.914062 1.359375 13.957031 2.402344 13.957031 3.691406 C 13.957031 4.980469 12.914062 6.023438 11.628906 6.023438 C 10.34375 6.023438 9.304688 4.980469 9.304688 3.691406 Z M 89.359375 77.726562 L 11.628906 77.726562 L 11.628906 19.820312 L 89.359375 19.820312 Z M 89.359375 77.726562 "/>
<path style=" stroke:none;fill-rule:nonzero;fill:rgb(100%,100%,100%);fill-opacity:1;" d="M 136.65625 1.941406 L 141.308594 1.941406 L 141.308594 2.527344 L 136.65625 2.527344 Z M 136.65625 1.941406 "/>
<path style=" stroke:none;fill-rule:nonzero;fill:rgb(100%,100%,100%);fill-opacity:1;" d="M 136.65625 3.691406 L 141.308594 3.691406 L 141.308594 4.273438 L 136.65625 4.273438 Z M 136.65625 3.691406 "/>
<path style=" stroke:none;fill-rule:nonzero;fill:rgb(100%,100%,100%);fill-opacity:1;" d="M 136.65625 5.441406 L 141.308594 5.441406 L 141.308594 6.023438 L 136.65625 6.023438 Z M 136.65625 5.441406 "/>
<path style=" stroke:none;fill-rule:nonzero;fill:rgb(100%,100%,100%);fill-opacity:1;" d="M 101.570312 18.847656 L 136.65625 18.847656 L 136.65625 20.597656 L 101.570312 20.597656 Z M 101.570312 18.847656 "/>
<path style=" stroke:none;fill-rule:nonzero;fill:rgb(100%,100%,100%);fill-opacity:1;" d="M 101.570312 24.871094 L 136.65625 24.871094 L 136.65625 26.621094 L 101.570312 26.621094 Z M 101.570312 24.871094 "/>
<path style=" stroke:none;fill-rule:nonzero;fill:rgb(100%,100%,100%);fill-opacity:1;" d="M 101.570312 30.898438 L 136.65625 30.898438 L 136.65625 32.644531 L 101.570312 32.644531 Z M 101.570312 30.898438 "/>
<path style=" stroke:none;fill-rule:nonzero;fill:rgb(100%,100%,100%);fill-opacity:1;" d="M 101.570312 36.921875 L 136.65625 36.921875 L 136.65625 38.667969 L 101.570312 38.667969 Z M 101.570312 36.921875 "/>
<path style=" stroke:none;fill-rule:nonzero;fill:rgb(100%,100%,100%);fill-opacity:1;" d="M 101.570312 42.945312 L 136.65625 42.945312 L 136.65625 44.695312 L 101.570312 44.695312 Z M 101.570312 42.945312 "/>
<path style=" stroke:none;fill-rule:nonzero;fill:rgb(100%,100%,100%);fill-opacity:1;" d="M 101.570312 48.96875 L 136.65625 48.96875 L 136.65625 50.71875 L 101.570312 50.71875 Z M 101.570312 48.96875 "/>
<path style=" stroke:none;fill-rule:nonzero;fill:rgb(100%,100%,100%);fill-opacity:1;" d="M 101.570312 54.992188 L 136.65625 54.992188 L 136.65625 56.742188 L 101.570312 56.742188 Z M 101.570312 54.992188 "/>
<path style=" stroke:none;fill-rule:nonzero;fill:rgb(100%,100%,100%);fill-opacity:1;" d="M 101.570312 61.015625 L 136.65625 61.015625 L 136.65625 62.765625 L 101.570312 62.765625 Z M 101.570312 61.015625 "/>
<path style=" stroke:none;fill-rule:nonzero;fill:rgb(100%,100%,100%);fill-opacity:1;" d="M 101.570312 67.039062 L 136.65625 67.039062 L 136.65625 68.789062 L 101.570312 68.789062 Z M 101.570312 67.039062 "/>
<path style=" stroke:none;fill-rule:nonzero;fill:rgb(100%,100%,100%);fill-opacity:1;" d="M 101.570312 73.0625 L 136.65625 73.0625 L 136.65625 74.8125 L 101.570312 74.8125 Z M 101.570312 73.0625 "/>
<path style=" stroke:none;fill-rule:nonzero;fill:rgb(100%,100%,100%);fill-opacity:1;" d="M 18.609375 81.808594 C 18.609375 83.097656 17.566406 84.140625 16.28125 84.140625 C 14.996094 84.140625 13.957031 83.097656 13.957031 81.808594 C 13.957031 80.519531 14.996094 79.476562 16.28125 79.476562 C 17.566406 79.476562 18.609375 80.519531 18.609375 81.808594 Z M 18.609375 81.808594 "/>
<path style=" stroke:none;fill-rule:nonzero;fill:rgb(100%,100%,100%);fill-opacity:1;" d="M 26.554688 81.808594 C 26.554688 83.097656 25.515625 84.140625 24.230469 84.140625 C 22.945312 84.140625 21.902344 83.097656 21.902344 81.808594 C 21.902344 80.519531 22.945312 79.476562 24.230469 79.476562 C 25.515625 79.476562 26.554688 80.519531 26.554688 81.808594 Z M 26.554688 81.808594 "/>
<path style=" stroke:none;fill-rule:nonzero;fill:rgb(100%,100%,100%);fill-opacity:1;" d="M 34.503906 81.808594 C 34.503906 83.097656 33.460938 84.140625 32.175781 84.140625 C 30.890625 84.140625 29.851562 83.097656 29.851562 81.808594 C 29.851562 80.519531 30.890625 79.476562 32.175781 79.476562 C 33.460938 79.476562 34.503906 80.519531 34.503906 81.808594 Z M 34.503906 81.808594 "/>
<path style=" stroke:none;fill-rule:nonzero;fill:rgb(42.352941%,38.823529%,100%);fill-opacity:1;" d="M 101.570312 93.273438 L 136.65625 93.273438 L 136.65625 103.183594 L 101.570312 103.183594 Z M 101.570312 93.273438 "/>
<path style=" stroke:none;fill-rule:nonzero;fill:rgb(18.431373%,18.039216%,25.490196%);fill-opacity:1;" d="M 119.007812 85.394531 L 119.402344 99.160156 L 123.585938 115.289062 C 123.585938 115.289062 122.671875 118.042969 123.324219 118.699219 C 123.980469 119.355469 126.988281 120.535156 126.988281 120.535156 L 124.503906 86.179688 Z M 119.007812 85.394531 "/>
<path style=" stroke:none;fill-rule:nonzero;fill:rgb(18.431373%,18.039216%,25.490196%);fill-opacity:1;" d="M 128.097656 118.632812 C 128.097656 118.632812 129.589844 121.921875 127.5 122.222656 C 125.410156 122.519531 115.757812 123.320312 116.355469 121.625 C 116.949219 119.925781 124.214844 118.332031 124.214844 118.332031 Z M 128.097656 118.632812 "/>
<path style=" stroke:none;fill-rule:nonzero;fill:rgb(18.431373%,18.039216%,25.490196%);fill-opacity:1;" d="M 133.65625 73.199219 C 133.65625 73.199219 132.089844 81.722656 131.042969 83.164062 C 129.996094 84.605469 131.566406 95.097656 131.566406 95.097656 C 131.566406 95.097656 133.917969 110.175781 132.875 112.535156 C 131.828125 114.894531 132.089844 114.109375 132.21875 115.421875 C 132.351562 116.730469 132.613281 117.78125 132.21875 118.960938 C 131.828125 120.140625 131.828125 120.007812 131.695312 120.664062 C 131.566406 121.320312 131.695312 124.859375 131.695312 124.859375 C 131.695312 124.859375 126.070312 126.828125 125.15625 123.941406 C 125.15625 123.941406 126.464844 122.105469 126.070312 120.664062 C 125.664062 119.214844 125.441406 117.714844 125.417969 116.207031 L 125.417969 113.453125 L 119.402344 90.898438 L 117.960938 82.769531 C 117.960938 82.769531 118.355469 74.511719 119.792969 73.722656 C 121.230469 72.9375 133.65625 73.199219 133.65625 73.199219 Z M 133.65625 73.199219 "/>
<path style=" stroke:none;fill-rule:nonzero;fill:rgb(18.431373%,18.039216%,25.490196%);fill-opacity:1;" d="M 131.304688 124.207031 C 131.304688 124.207031 133.265625 128.53125 130.519531 128.925781 C 127.773438 129.320312 115.085938 130.367188 115.871094 128.140625 C 116.65625 125.910156 126.203125 123.8125 126.203125 123.8125 Z M 131.304688 124.207031 "/>
<path style=" stroke:none;fill-rule:nonzero;fill:rgb(100%,72.54902%,72.54902%);fill-opacity:1;" d="M 134.050781 30.195312 C 134.050781 33.09375 131.707031 35.441406 128.816406 35.441406 C 125.929688 35.441406 123.585938 33.09375 123.585938 30.195312 C 123.585938 27.300781 125.929688 24.953125 128.816406 24.953125 C 131.707031 24.953125 134.050781 27.300781 134.050781 30.195312 Z M 134.050781 30.195312 "/>
<path style=" stroke:none;fill-rule:nonzero;fill:rgb(100%,72.54902%,72.54902%);fill-opacity:1;" d="M 132.492188 32.515625 L 132.394531 39.210938 L 125.980469 39.234375 C 125.980469 39.234375 127.609375 33.992188 126.878906 32.894531 C 126.152344 31.796875 132.492188 32.515625 132.492188 32.515625 Z M 132.492188 32.515625 "/>
<path style=" stroke:none;fill-rule:nonzero;fill:rgb(24.705882%,23.921569%,33.72549%);fill-opacity:1;" d="M 122.933594 42.910156 C 122.933594 42.910156 127.511719 37.007812 131.042969 39.5 C 134.574219 41.992188 135.882812 47.890625 135.882812 47.890625 L 135.097656 64.414062 C 135.097656 64.414062 133.136719 66.773438 134.3125 68.347656 C 135.488281 69.921875 136.144531 69.527344 135.226562 70.707031 C 134.3125 71.886719 133.265625 72.804688 133.65625 73.199219 C 134.050781 73.59375 133.265625 73.855469 133.265625 73.855469 L 119.402344 74.246094 C 119.402344 74.246094 119.792969 73.722656 118.617188 72.148438 C 117.4375 70.578125 118.878906 68.476562 118.617188 67.691406 C 118.355469 66.90625 118.09375 67.824219 117.960938 65.988281 C 117.832031 64.152344 122.933594 42.910156 122.933594 42.910156 Z M 122.933594 42.910156 "/>
<path style=" stroke:none;fill-rule:nonzero;fill:rgb(100%,72.54902%,72.54902%);fill-opacity:1;" d="M 124.242188 76.738281 C 124.242188 76.738281 123.980469 80.015625 122.015625 80.542969 C 121.28125 80.738281 120.730469 80.363281 120.328125 79.816406 C 119.558594 78.75 119.519531 77.316406 120.222656 76.207031 L 120.710938 75.429688 Z M 124.242188 76.738281 "/>
<path style=" stroke:none;fill-rule:nonzero;fill:rgb(24.705882%,23.921569%,33.72549%);fill-opacity:1;" d="M 136.339844 36.289062 C 136.339844 36.289062 136.46875 38.910156 136.339844 39.304688 C 136.207031 39.695312 136.078125 40.089844 136.339844 40.484375 C 136.601562 40.878906 136.46875 42.1875 136.207031 42.320312 C 135.945312 42.449219 136.730469 43.632812 136.46875 44.417969 C 136.207031 45.203125 135.945312 45.464844 135.816406 45.730469 C 135.683594 45.992188 135.476562 46.460938 135.476562 46.460938 C 135.476562 46.460938 131.628906 38.253906 128.492188 40.222656 C 125.351562 42.1875 122.867188 42.84375 122.867188 42.84375 C 122.867188 42.84375 124.566406 33.664062 136.339844 36.289062 Z M 136.339844 36.289062 "/>
<path style=" stroke:none;fill-rule:nonzero;fill:rgb(24.705882%,23.921569%,33.72549%);fill-opacity:1;" d="M 130.648438 42.386719 C 130.648438 42.386719 134.835938 42.777344 134.574219 48.285156 C 134.3125 53.792969 134.964844 62.445312 134.964844 62.445312 C 134.964844 62.445312 127.773438 73.460938 126.59375 74.246094 C 125.417969 75.035156 125.285156 74.902344 125.417969 75.558594 C 125.546875 76.214844 125.679688 76.738281 125.15625 77.261719 C 124.847656 77.574219 124.496094 77.839844 124.109375 78.050781 C 124.109375 78.050781 119.925781 76.609375 120.316406 75.296875 C 120.710938 73.984375 122.539062 71.886719 122.539062 71.886719 C 122.539062 71.886719 125.679688 66.773438 125.808594 65.988281 C 125.941406 65.199219 125.941406 65.332031 126.332031 64.9375 C 126.726562 64.542969 127.773438 62.972656 127.773438 62.183594 L 127.773438 59.691406 L 126.675781 46.378906 C 126.574219 45.28125 126.945312 44.195312 127.695312 43.390625 C 128.320312 42.738281 129.261719 42.21875 130.648438 42.386719 Z M 130.648438 42.386719 "/>
<path style=" stroke:none;fill-rule:nonzero;fill:rgb(18.431373%,18.039216%,25.490196%);fill-opacity:1;" d="M 125.441406 26.152344 C 124.75 26.34375 124.007812 26.171875 123.46875 25.699219 C 122.957031 25.210938 122.785156 24.367188 123.148438 23.761719 C 123.460938 23.238281 124.074219 22.984375 124.65625 22.800781 C 125.9375 22.398438 127.273438 22.195312 128.617188 22.195312 C 129.257812 22.195312 129.925781 22.25 130.472656 22.582031 C 130.746094 22.746094 130.972656 22.972656 131.242188 23.140625 C 131.734375 23.453125 132.328125 23.554688 132.867188 23.773438 C 133.988281 24.230469 134.855469 25.148438 135.246094 26.296875 C 135.371094 26.679688 135.449219 27.078125 135.476562 27.480469 C 135.566406 28.585938 135.371094 29.695312 134.910156 30.703125 C 134.179688 32.296875 132.792969 33.636719 132.597656 35.382812 C 131.847656 34.753906 131.628906 33.695312 131.050781 32.910156 C 130.617188 32.328125 130.003906 31.90625 129.304688 31.722656 C 129.109375 31.695312 128.925781 31.613281 128.777344 31.484375 C 128.675781 31.34375 128.617188 31.179688 128.609375 31.007812 L 128.25 28.414062 C 128.179688 27.886719 128.078125 27.3125 127.675781 26.964844 C 127.421875 26.777344 127.128906 26.648438 126.820312 26.59375 C 126.085938 26.410156 125.335938 26.289062 124.582031 26.226562 "/>
<use xlink:href="#surface8" mask="url(#mask1)"/>
<use xlink:href="#surface11" mask="url(#mask2)"/>
</g>
</svg>
