<?xml version="1.0" encoding="UTF-8"?>
<svg xmlns="http://www.w3.org/2000/svg" xmlns:xlink="http://www.w3.org/1999/xlink" width="150px" height="130px" viewBox="0 0 194 130" version="1.1">
<g id="surface1">
<path style=" stroke:none;fill-rule:nonzero;fill:rgb(42.352941%,38.823529%,100%);fill-opacity:1;" d="M 0 56.417969 C 0 39.691406 13.507812 0 30.171875 0 C 46.832031 0 60.339844 39.691406 60.339844 56.417969 C 60.339844 73.144531 46.832031 86.707031 30.171875 86.707031 C 13.507812 86.707031 0 73.144531 0 56.417969 Z M 0 56.417969 "/>
<path style=" stroke:none;fill-rule:nonzero;fill:rgb(24.705882%,23.921569%,33.72549%);fill-opacity:1;" d="M 30.171875 130.105469 C 30.03125 130.105469 29.921875 129.992188 29.921875 129.855469 L 29.921875 25.4375 C 29.921875 25.296875 30.03125 25.1875 30.171875 25.1875 C 30.308594 25.1875 30.417969 25.296875 30.417969 25.4375 L 30.417969 129.855469 C 30.417969 129.992188 30.308594 130.105469 30.171875 130.105469 Z M 30.171875 130.105469 "/>
<path style=" stroke:none;fill-rule:nonzero;fill:rgb(24.705882%,23.921569%,33.72549%);fill-opacity:1;" d="M 30.171875 45.59375 C 30.105469 45.59375 30.042969 45.566406 29.996094 45.523438 L 18.054688 33.535156 C 17.988281 33.472656 17.964844 33.378906 17.988281 33.292969 C 18.011719 33.207031 18.078125 33.140625 18.164062 33.117188 C 18.25 33.09375 18.339844 33.117188 18.402344 33.183594 L 30.34375 45.167969 C 30.417969 45.242188 30.4375 45.347656 30.398438 45.441406 C 30.359375 45.535156 30.269531 45.59375 30.171875 45.59375 Z M 30.171875 45.59375 "/>
<path style=" stroke:none;fill-rule:nonzero;fill:rgb(24.705882%,23.921569%,33.72549%);fill-opacity:1;" d="M 30.171875 66.347656 C 30.070312 66.347656 29.980469 66.285156 29.941406 66.195312 C 29.902344 66.101562 29.921875 65.992188 29.996094 65.921875 L 49.992188 45.847656 C 50.054688 45.78125 50.148438 45.757812 50.234375 45.78125 C 50.320312 45.804688 50.386719 45.871094 50.410156 45.957031 C 50.433594 46.042969 50.40625 46.136719 50.34375 46.199219 L 30.34375 66.273438 C 30.300781 66.320312 30.234375 66.347656 30.171875 66.347656 Z M 30.171875 66.347656 "/>
<path style=" stroke:none;fill-rule:nonzero;fill:rgb(90.196078%,90.196078%,90.196078%);fill-opacity:1;" d="M 57.488281 76.777344 C 57.488281 64.757812 67.199219 36.234375 79.183594 36.234375 C 91.164062 36.234375 100.875 64.757812 100.875 76.777344 C 100.867188 88.800781 91.15625 98.542969 79.183594 98.542969 C 67.207031 98.542969 57.496094 88.800781 57.488281 76.777344 Z M 57.488281 76.777344 "/>
<path style=" stroke:none;fill-rule:nonzero;fill:rgb(24.705882%,23.921569%,33.72549%);fill-opacity:1;" d="M 79.183594 129.726562 C 79.082031 129.726562 79.003906 129.644531 79.003906 129.546875 L 79.003906 54.511719 C 79.003906 54.414062 79.082031 54.335938 79.183594 54.335938 C 79.28125 54.335938 79.359375 54.414062 79.359375 54.511719 L 79.359375 129.546875 C 79.359375 129.644531 79.28125 129.726562 79.183594 129.726562 Z M 79.183594 129.726562 "/>
<path style=" stroke:none;fill-rule:nonzero;fill:rgb(24.705882%,23.921569%,33.72549%);fill-opacity:1;" d="M 79.183594 69 C 79.132812 69 79.089844 68.980469 79.054688 68.945312 L 70.46875 60.332031 C 70.398438 60.261719 70.398438 60.148438 70.46875 60.078125 C 70.539062 60.007812 70.652344 60.007812 70.722656 60.078125 L 79.308594 68.695312 C 79.359375 68.746094 79.375 68.820312 79.347656 68.886719 C 79.320312 68.957031 79.253906 69 79.183594 69 Z M 79.183594 69 "/>
<path style=" stroke:none;fill-rule:nonzero;fill:rgb(24.705882%,23.921569%,33.72549%);fill-opacity:1;" d="M 79.183594 83.910156 C 79.109375 83.910156 79.042969 83.867188 79.015625 83.800781 C 78.988281 83.734375 79.003906 83.65625 79.054688 83.605469 L 93.4375 69.179688 C 93.503906 69.109375 93.617188 69.109375 93.6875 69.179688 C 93.757812 69.25 93.757812 69.363281 93.6875 69.433594 L 79.308594 83.859375 C 79.273438 83.890625 79.230469 83.910156 79.183594 83.910156 Z M 79.183594 83.910156 "/>
<path style=" stroke:none;fill-rule:nonzero;fill:rgb(42.352941%,38.823529%,100%);fill-opacity:1;" d="M 80.476562 128.289062 C 79.847656 128.289062 79.265625 127.953125 78.953125 127.402344 C 78.640625 126.855469 78.644531 126.179688 78.964844 125.636719 L 81.421875 121.417969 L 84.457031 123.203125 L 81.996094 127.417969 C 81.679688 127.960938 81.101562 128.292969 80.476562 128.289062 Z M 80.476562 128.289062 "/>
<path style=" stroke:none;fill-rule:nonzero;fill:rgb(42.352941%,38.823529%,100%);fill-opacity:1;" d="M 92.292969 116.484375 C 92.292969 117.683594 91.324219 118.65625 90.128906 118.65625 C 88.933594 118.65625 87.964844 117.683594 87.964844 116.484375 C 87.964844 115.285156 88.933594 114.3125 90.128906 114.3125 C 91.324219 114.3125 92.292969 115.285156 92.292969 116.484375 Z M 92.292969 116.484375 "/>
<path style=" stroke:none;fill-rule:nonzero;fill:rgb(42.352941%,38.823529%,100%);fill-opacity:1;" d="M 70.960938 128.289062 C 70.332031 128.289062 69.75 127.953125 69.4375 127.402344 C 69.125 126.855469 69.128906 126.179688 69.445312 125.636719 L 71.90625 121.417969 L 74.9375 123.203125 L 72.480469 127.417969 C 72.164062 127.960938 71.585938 128.292969 70.960938 128.289062 Z M 70.960938 128.289062 "/>
<path style=" stroke:none;fill-rule:nonzero;fill:rgb(24.705882%,23.921569%,33.72549%);fill-opacity:1;" d="M 85.121094 125.472656 L 74.222656 125.472656 C 71.136719 125.46875 68.632812 122.957031 68.628906 119.855469 L 68.628906 118.195312 C 68.628906 117.117188 69.5 116.246094 70.570312 116.246094 L 85.121094 116.246094 C 87.660156 116.246094 89.71875 118.308594 89.71875 120.859375 C 89.71875 123.40625 87.660156 125.472656 85.121094 125.472656 Z M 85.121094 125.472656 "/>
<path style=" stroke:none;fill-rule:nonzero;fill:rgb(24.705882%,23.921569%,33.72549%);fill-opacity:1;" d="M 84.605469 129.726562 C 83.636719 129.726562 82.847656 128.9375 82.847656 127.960938 L 82.847656 123.078125 L 86.363281 123.078125 L 86.363281 127.960938 C 86.363281 128.9375 85.574219 129.726562 84.605469 129.726562 Z M 84.605469 129.726562 "/>
<path style=" stroke:none;fill-rule:nonzero;fill:rgb(24.705882%,23.921569%,33.72549%);fill-opacity:1;" d="M 74.40625 129.726562 C 73.4375 129.726562 72.648438 128.9375 72.648438 127.960938 L 72.648438 123.078125 L 76.164062 123.078125 L 76.164062 127.960938 C 76.164062 128.9375 75.375 129.726562 74.40625 129.726562 Z M 74.40625 129.726562 "/>
<path style=" stroke:none;fill-rule:nonzero;fill:rgb(42.352941%,38.823529%,100%);fill-opacity:1;" d="M 65.417969 113.078125 L 62.046875 115.796875 L 58.488281 111.351562 C 57.746094 110.417969 57.894531 109.054688 58.824219 108.304688 C 59.753906 107.554688 61.113281 107.703125 61.863281 108.632812 Z M 65.417969 113.078125 "/>
<path style=" stroke:none;fill-rule:nonzero;fill:rgb(24.705882%,23.921569%,33.72549%);fill-opacity:1;" d="M 70.1875 119.589844 L 64.609375 124.085938 C 63.9375 124.625 62.957031 124.519531 62.417969 123.84375 L 60.070312 120.914062 C 58.355469 118.765625 58.695312 115.628906 60.832031 113.902344 L 61.722656 113.183594 C 63.515625 111.742188 66.136719 112.027344 67.578125 113.828125 L 70.425781 117.386719 C 70.964844 118.0625 70.859375 119.046875 70.1875 119.589844 Z M 70.1875 119.589844 "/>
<path style=" stroke:none;fill-rule:nonzero;fill:rgb(24.705882%,23.921569%,33.72549%);fill-opacity:1;" d="M 65.417969 113.078125 L 63.097656 114.945312 L 59.121094 109.972656 C 58.605469 109.332031 58.707031 108.390625 59.347656 107.875 C 59.988281 107.359375 60.925781 107.460938 61.4375 108.101562 Z M 65.417969 113.078125 "/>
<path style=" stroke:none;fill-rule:nonzero;fill:rgb(24.705882%,23.921569%,33.72549%);fill-opacity:1;" d="M 69.847656 119.800781 L 63.734375 124.730469 C 62.804688 125.476562 61.445312 125.328125 60.699219 124.394531 C 59.953125 123.460938 60.097656 122.097656 61.027344 121.34375 L 67.140625 116.417969 Z M 69.847656 119.800781 "/>
<path style=" stroke:none;fill-rule:nonzero;fill:rgb(42.352941%,38.823529%,100%);fill-opacity:1;" d="M 61.222656 123.921875 C 60.90625 123.527344 60.472656 123.351562 60.257812 123.527344 C 60.039062 123.703125 60.117188 124.164062 60.433594 124.558594 C 60.746094 124.953125 61.179688 125.128906 61.398438 124.953125 C 61.617188 124.777344 61.539062 124.316406 61.222656 123.921875 Z M 61.222656 123.921875 "/>
<path style=" stroke:none;fill-rule:nonzero;fill:rgb(80%,80%,80%);fill-opacity:1;" d="M 44.050781 126.847656 C 44.050781 128.289062 42.886719 129.460938 41.445312 129.460938 C 40.007812 129.460938 39.957031 128.152344 41.074219 126.847656 C 39.957031 126.101562 40.007812 124.230469 41.445312 124.230469 C 42.886719 124.230469 44.050781 125.402344 44.050781 126.847656 Z M 44.050781 126.847656 "/>
<path style=" stroke:none;fill-rule:nonzero;fill:rgb(80%,80%,80%);fill-opacity:1;" d="M 51.492188 126.847656 C 51.492188 128.289062 52.660156 129.460938 54.097656 129.460938 C 55.539062 129.460938 55.585938 128.152344 54.472656 126.847656 C 55.585938 126.101562 55.539062 124.230469 54.097656 124.230469 C 52.660156 124.230469 51.492188 125.402344 51.492188 126.847656 Z M 51.492188 126.847656 "/>
<path style=" stroke:none;fill-rule:nonzero;fill:rgb(80%,80%,80%);fill-opacity:1;" d="M 42.5625 125.539062 L 52.980469 125.539062 L 52.980469 128.152344 L 42.5625 128.152344 Z M 42.5625 125.539062 "/>
<path style=" stroke:none;fill-rule:nonzero;fill:rgb(24.705882%,23.921569%,33.72549%);fill-opacity:1;" d="M 193.789062 129.960938 L 8.71875 129.960938 C 8.582031 129.960938 8.472656 129.847656 8.472656 129.710938 C 8.472656 129.574219 8.582031 129.460938 8.71875 129.460938 L 193.789062 129.460938 C 193.925781 129.460938 194.035156 129.574219 194.035156 129.710938 C 194.035156 129.847656 193.925781 129.960938 193.789062 129.960938 Z M 193.789062 129.960938 "/>
<path style=" stroke:none;fill-rule:nonzero;fill:rgb(62.745098%,38.039216%,41.568627%);fill-opacity:1;" d="M 153.628906 76.875 C 153.628906 78.910156 151.984375 80.558594 149.957031 80.558594 C 147.929688 80.558594 146.285156 78.910156 146.285156 76.875 C 146.285156 74.839844 147.929688 73.1875 149.957031 73.1875 C 151.984375 73.1875 153.628906 74.839844 153.628906 76.875 Z M 153.628906 76.875 "/>
<path style=" stroke:none;fill-rule:nonzero;fill:rgb(62.745098%,38.039216%,41.568627%);fill-opacity:1;" d="M 149.722656 97.539062 C 149.578125 97.089844 149.632812 96.601562 149.871094 96.195312 C 150.105469 95.789062 150.503906 95.503906 150.964844 95.414062 C 151.039062 95.398438 151.109375 95.390625 151.183594 95.386719 L 155.050781 89.15625 L 151.519531 85.785156 C 151.152344 85.433594 151 84.910156 151.121094 84.417969 C 151.242188 83.925781 151.617188 83.535156 152.105469 83.394531 C 152.59375 83.257812 153.117188 83.394531 153.480469 83.75 L 158.355469 88.578125 L 158.367188 88.589844 C 158.675781 89.0625 158.640625 89.683594 158.277344 90.117188 L 152.859375 96.550781 C 152.875 96.605469 152.890625 96.65625 152.898438 96.710938 C 152.992188 97.171875 152.882812 97.648438 152.601562 98.023438 C 152.320312 98.402344 151.890625 98.636719 151.421875 98.675781 C 151.375 98.683594 151.332031 98.683594 151.285156 98.683594 C 150.570312 98.679688 149.941406 98.21875 149.722656 97.539062 Z M 149.722656 97.539062 "/>
<path style=" stroke:none;fill-rule:nonzero;fill:rgb(62.745098%,38.039216%,41.568627%);fill-opacity:1;" d="M 143.910156 128.171875 L 142.078125 128.171875 L 141.207031 121.074219 L 143.910156 121.074219 Z M 143.910156 128.171875 "/>
<path style=" stroke:none;fill-rule:nonzero;fill:rgb(18.431373%,18.039216%,25.490196%);fill-opacity:1;" d="M 144.453125 130.03125 L 138.394531 130.03125 L 138.394531 129.878906 C 138.394531 128.5625 139.457031 127.496094 140.769531 127.496094 L 144.453125 127.496094 Z M 144.453125 130.03125 "/>
<path style=" stroke:none;fill-rule:nonzero;fill:rgb(62.745098%,38.039216%,41.568627%);fill-opacity:1;" d="M 162.128906 125.628906 L 160.550781 126.570312 L 156.1875 120.917969 L 158.511719 119.53125 Z M 162.128906 125.628906 "/>
<path style=" stroke:none;fill-rule:nonzero;fill:rgb(18.431373%,18.039216%,25.490196%);fill-opacity:1;" d="M 158.335938 130.058594 L 158.257812 129.929688 C 157.585938 128.796875 157.957031 127.335938 159.082031 126.660156 L 162.25 124.769531 L 163.539062 126.945312 Z M 158.335938 130.058594 "/>
<path style=" stroke:none;fill-rule:nonzero;fill:rgb(18.431373%,18.039216%,25.490196%);fill-opacity:1;" d="M 140.976562 125.046875 C 139.746094 110.535156 139.015625 97.050781 143.503906 91.550781 L 143.539062 91.507812 L 151.09375 94.542969 L 151.105469 94.570312 C 151.132812 94.625 153.644531 100.171875 153.058594 103.902344 L 154.921875 112.507812 L 160.996094 122.714844 C 161.09375 122.882812 161.117188 123.082031 161.058594 123.269531 C 161 123.453125 160.863281 123.601562 160.6875 123.679688 L 158.046875 124.847656 C 157.742188 124.980469 157.378906 124.867188 157.203125 124.582031 L 150.597656 113.765625 L 146.863281 105.46875 C 146.820312 105.375 146.722656 105.324219 146.625 105.339844 C 146.523438 105.355469 146.445312 105.4375 146.4375 105.539062 L 144.367188 125.0625 C 144.332031 125.40625 144.042969 125.664062 143.699219 125.664062 L 141.644531 125.664062 C 141.296875 125.664062 141.007812 125.394531 140.976562 125.046875 Z M 140.976562 125.046875 "/>
<path style=" stroke:none;fill-rule:nonzero;fill:rgb(42.352941%,38.823529%,100%);fill-opacity:1;" d="M 143.53125 91.667969 L 143.496094 91.648438 L 143.488281 91.609375 C 143.207031 89.628906 143.542969 87.425781 144.480469 85.0625 C 145.441406 82.675781 147.996094 81.351562 150.492188 81.949219 C 151.898438 82.296875 153.09375 83.222656 153.789062 84.496094 C 154.476562 85.757812 154.605469 87.25 154.144531 88.613281 C 152.957031 92.09375 151.417969 95.351562 151.402344 95.382812 L 151.371094 95.453125 Z M 143.53125 91.667969 "/>
<path style=" stroke:none;fill-rule:nonzero;fill:rgb(62.745098%,38.039216%,41.568627%);fill-opacity:1;" d="M 138.097656 99.890625 C 137.988281 99.0625 138.5 98.28125 139.300781 98.050781 L 146.363281 84.4375 C 146.617188 84.023438 147.070312 83.773438 147.554688 83.789062 C 148.039062 83.800781 148.480469 84.074219 148.710938 84.503906 C 148.941406 84.933594 148.921875 85.453125 148.664062 85.867188 L 141.4375 99.382812 C 141.453125 99.464844 141.460938 99.546875 141.464844 99.632812 C 141.476562 100.09375 141.300781 100.539062 140.976562 100.871094 C 140.652344 101.199219 140.210938 101.378906 139.75 101.375 C 139.246094 101.367188 138.769531 101.132812 138.453125 100.738281 C 138.257812 100.492188 138.132812 100.199219 138.097656 99.890625 Z M 138.097656 99.890625 "/>
<path style=" stroke:none;fill-rule:nonzero;fill:rgb(18.431373%,18.039216%,25.490196%);fill-opacity:1;" d="M 145.507812 74.792969 L 151.335938 74.792969 L 151.335938 72.242188 C 150.058594 71.730469 148.804688 71.296875 148.046875 72.242188 C 146.644531 72.242188 145.507812 73.382812 145.507812 74.792969 Z M 145.507812 74.792969 "/>
<path style=" stroke:none;fill-rule:nonzero;fill:rgb(18.431373%,18.039216%,25.490196%);fill-opacity:1;" d="M 151.660156 71.789062 C 155.144531 71.789062 156.121094 76.175781 156.121094 78.652344 C 156.121094 80.03125 155.5 80.523438 154.523438 80.691406 L 154.175781 78.84375 L 153.367188 80.769531 C 153.09375 80.773438 152.804688 80.765625 152.507812 80.761719 L 152.234375 80.195312 L 151.621094 80.75 C 149.175781 80.753906 147.199219 81.113281 147.199219 78.652344 C 147.199219 76.175781 148.054688 71.789062 151.660156 71.789062 Z M 151.660156 71.789062 "/>
</g>
</svg>
