<?xml version="1.0" encoding="UTF-8"?>
<svg xmlns="http://www.w3.org/2000/svg" xmlns:xlink="http://www.w3.org/1999/xlink" width="24px" height="24px" viewBox="0 0 24 21" version="1.1">
<g id="surface1">
<path style=" stroke:none;fill-rule:nonzero;fill:rgb(0%,0%,0%);fill-opacity:1;" d="M 12.785156 3.769531 C 12.652344 3.90625 12.519531 4.046875 12.355469 4.214844 L 11.90625 4.675781 L 11.4375 4.230469 C 11.296875 4.097656 11.15625 3.960938 11.019531 3.828125 C 9.570312 2.433594 8.476562 1.382812 6.230469 1.355469 C 6.144531 1.351562 6.050781 1.355469 5.953125 1.359375 C 4.695312 1.402344 3.535156 1.855469 2.6875 2.628906 C 1.851562 3.394531 1.316406 4.476562 1.300781 5.796875 C 1.296875 5.878906 1.300781 5.964844 1.304688 6.058594 C 1.4375 9.742188 5.039062 12.953125 8.023438 15.613281 C 8.601562 16.128906 9.15625 16.621094 9.683594 17.121094 L 11.882812 19.195312 L 14.648438 16.511719 C 15.09375 16.078125 15.597656 15.605469 16.136719 15.101562 C 17.050781 14.242188 18.070312 13.289062 19.019531 12.328125 C 19.703125 11.636719 20.347656 10.945312 20.898438 10.277344 C 21.4375 9.625 21.875 9.003906 22.160156 8.449219 C 22.625 7.539062 22.773438 6.628906 22.671875 5.777344 C 22.574219 4.941406 22.234375 4.15625 21.730469 3.488281 C 21.21875 2.808594 20.535156 2.246094 19.75 1.863281 C 18.847656 1.425781 17.8125 1.214844 16.757812 1.335938 C 14.9375 1.539062 13.964844 2.546875 12.785156 3.769531 Z M 11.867188 2.867188 C 13.214844 1.472656 14.335938 0.328125 16.609375 0.0742188 C 17.921875 -0.0742188 19.207031 0.183594 20.328125 0.730469 C 21.292969 1.207031 22.136719 1.898438 22.769531 2.734375 C 23.40625 3.578125 23.835938 4.570312 23.960938 5.636719 C 24.089844 6.71875 23.90625 7.871094 23.316406 9.015625 C 22.984375 9.664062 22.492188 10.359375 21.90625 11.074219 C 21.328125 11.773438 20.65625 12.492188 19.953125 13.207031 C 18.984375 14.1875 17.957031 15.148438 17.03125 16.019531 C 16.492188 16.523438 15.984375 17 15.558594 17.410156 L 12.34375 20.53125 L 11.890625 20.96875 L 11.4375 20.539062 L 8.78125 18.035156 C 8.292969 17.578125 7.730469 17.078125 7.144531 16.554688 C 3.980469 13.730469 0.15625 10.320312 0.00390625 6.101562 C 0 6 0 5.890625 0 5.78125 C 0.0234375 4.085938 0.714844 2.6875 1.796875 1.699219 C 2.875 0.71875 4.332031 0.144531 5.902344 0.0898438 C 6.007812 0.0859375 6.125 0.0859375 6.242188 0.0859375 C 8.984375 0.121094 10.238281 1.296875 11.867188 2.867188 Z M 11.867188 2.867188 "/>
</g>
</svg>
