<?xml version="1.0" encoding="UTF-8"?>
<svg xmlns="http://www.w3.org/2000/svg" xmlns:xlink="http://www.w3.org/1999/xlink" width="24px" height="24px" viewBox="0 0 24 24" version="1.1">
<g id="surface1">
<path style=" stroke:none;fill-rule:nonzero;fill:rgb(0%,0%,0%);fill-opacity:1;" d="M 11.980469 0.507812 C 11.882812 0.507812 11.785156 0.542969 11.703125 0.605469 L 0.664062 9.222656 C 0.457031 9.382812 0.417969 9.6875 0.582031 9.894531 C 0.746094 10.105469 1.046875 10.140625 1.253906 9.980469 L 1.921875 9.460938 L 1.921875 22.078125 C 1.921875 22.34375 2.136719 22.558594 2.398438 22.558594 L 9.039062 22.558594 C 9.089844 22.570312 9.144531 22.570312 9.195312 22.558594 L 14.800781 22.558594 C 14.851562 22.570312 14.902344 22.570312 14.957031 22.558594 L 21.601562 22.558594 C 21.863281 22.558594 22.078125 22.34375 22.078125 22.078125 L 22.078125 9.460938 L 22.746094 9.980469 C 22.953125 10.140625 23.253906 10.105469 23.417969 9.894531 C 23.582031 9.6875 23.542969 9.382812 23.335938 9.222656 L 19.679688 6.371094 L 19.679688 2.878906 L 16.800781 2.878906 L 16.800781 4.121094 L 12.296875 0.605469 C 12.207031 0.539062 12.09375 0.5 11.980469 0.507812 Z M 12 1.59375 L 21.121094 8.710938 L 21.121094 21.601562 L 15.359375 21.601562 L 15.359375 12.480469 L 8.640625 12.480469 L 8.640625 21.601562 L 2.878906 21.601562 L 2.878906 8.710938 Z M 17.761719 3.839844 L 18.71875 3.839844 L 18.71875 5.621094 L 17.761719 4.871094 Z M 9.601562 13.441406 L 14.398438 13.441406 L 14.398438 21.601562 L 9.601562 21.601562 Z M 9.601562 13.441406 "/>
</g>
</svg>
