<svg width="24" height="24" viewBox="0 0 24 24" fill="none" xmlns="http://www.w3.org/2000/svg">
<path d="M13.1746 4.77889C13.6581 3.07772 15.1758 2.01183 16.5593 2.4036C17.244 2.60124 17.7876 3.11301 18.0911 3.85066C18.384 4.56007 18.4158 5.39654 18.1864 6.20477C17.7699 7.66948 16.5911 8.66125 15.3876 8.66125C15.1934 8.66125 14.9958 8.63301 14.8017 8.58007C13.4217 8.18477 12.6911 6.4836 13.1746 4.77889ZM23.1523 10.6836C22.937 11.4389 22.4993 12.0883 21.917 12.5083C21.4864 12.8224 21.0099 12.9848 20.5405 12.9848C20.3499 12.9848 20.1628 12.9565 19.9793 12.9036C19.337 12.7236 18.8252 12.2401 18.5393 11.5483C18.2676 10.8848 18.2358 10.1048 18.4511 9.34595C18.9028 7.75066 20.3252 6.75536 21.624 7.12242C22.2664 7.30595 22.7781 7.78948 23.064 8.48125C23.3358 9.14477 23.3676 9.92477 23.1523 10.6836ZM5.81226 6.20477C5.58285 5.39654 5.61461 4.56007 5.90755 3.85066C6.21108 3.11301 6.75461 2.60124 7.43932 2.4036C8.82285 2.01183 10.3405 3.07772 10.824 4.77889C11.3076 6.4836 10.577 8.18477 9.19697 8.58007C9.00285 8.63301 8.8052 8.66125 8.61108 8.66125C7.40755 8.66125 6.22873 7.66948 5.81226 6.20477ZM20.417 17.1636C20.7134 18.6812 20.3393 20.0295 19.3864 20.8624C18.7723 21.4024 17.9746 21.6777 17.0923 21.6777C16.5876 21.6777 16.0511 21.586 15.5076 21.4024C14.4452 21.046 13.2981 20.8695 11.9993 20.8695C10.7005 20.8695 9.55344 21.046 8.49108 21.4024C6.99461 21.9071 5.57932 21.713 4.61226 20.8624C3.65932 20.0295 3.2852 18.6812 3.58167 17.1636C4.07932 14.6365 6.7052 12.2048 8.82285 10.6095C9.73344 9.96007 10.697 9.60713 11.7064 9.55066V9.54007H11.9993C12.0028 9.54007 12.0028 9.54007 12.0064 9.54007H12.1405C12.2217 9.5436 12.2852 9.54007 12.2958 9.54007V9.55066C13.3405 9.61066 14.3323 9.97419 15.1758 10.6095C17.2934 12.2048 19.9193 14.6365 20.417 17.1636ZM4.01932 12.9036C3.83579 12.9565 3.64873 12.9848 3.45814 12.9848C2.98873 12.9848 2.51226 12.8224 2.08167 12.5083C1.49932 12.0883 1.06167 11.4389 0.846378 10.6836C0.631084 9.92477 0.662848 9.14477 0.934613 8.48125C1.2205 7.78948 1.73226 7.30595 2.37461 7.12242C3.67344 6.75536 5.09579 7.75066 5.54755 9.34595C5.76285 10.1048 5.73108 10.8848 5.45932 11.5483C5.17344 12.2401 4.66167 12.7236 4.01932 12.9036Z" fill="white"/>
</svg>
