<?xml version="1.0" encoding="UTF-8"?>
<svg xmlns="http://www.w3.org/2000/svg" xmlns:xlink="http://www.w3.org/1999/xlink" width="24px" height="24px" viewBox="0 0 24 24" version="1.1">
<g id="surface1">
<path style=" stroke:none;fill-rule:nonzero;fill:rgb(0%,0%,0%);fill-opacity:1;" d="M 11.980469 13.773438 C 10.257812 13.773438 8.625 13.097656 7.40625 11.878906 C 6.179688 10.660156 5.511719 9.027344 5.511719 7.304688 C 5.511719 5.578125 6.1875 3.945312 7.40625 2.726562 C 8.625 1.5 10.246094 0.824219 11.980469 0.824219 C 13.714844 0.824219 15.335938 1.5 16.554688 2.71875 C 17.773438 3.945312 18.449219 5.570312 18.449219 7.292969 C 18.449219 9.019531 17.773438 10.648438 16.554688 11.867188 C 15.328125 13.097656 13.707031 13.773438 11.980469 13.773438 Z M 11.980469 2.429688 C 9.289062 2.429688 7.105469 4.613281 7.105469 7.304688 C 7.105469 9.992188 9.289062 12.179688 11.980469 12.179688 C 14.671875 12.179688 16.855469 9.992188 16.855469 7.304688 C 16.847656 4.613281 14.664062 2.429688 11.980469 2.429688 Z M 11.980469 2.429688 "/>
<path style=" stroke:none;fill-rule:nonzero;fill:rgb(0%,0%,0%);fill-opacity:1;" d="M 19.902344 15.984375 C 18.882812 14.960938 17.691406 14.15625 16.367188 13.59375 C 15.964844 13.425781 15.496094 13.59375 15.320312 13.996094 C 15.132812 14.410156 15.320312 14.886719 15.742188 15.066406 C 16.882812 15.554688 17.90625 16.238281 18.789062 17.117188 C 19.667969 18 20.351562 19.023438 20.839844 20.164062 C 21.160156 20.914062 21.375 21.695312 21.488281 22.492188 C 21.542969 22.882812 21.882812 23.175781 22.273438 23.175781 C 22.761719 23.175781 23.136719 22.742188 23.070312 22.265625 C 22.929688 21.335938 22.679688 20.429688 22.3125 19.546875 C 21.730469 18.207031 20.925781 17.015625 19.902344 15.984375 Z M 19.902344 15.984375 "/>
<path style=" stroke:none;fill-rule:nonzero;fill:rgb(0%,0%,0%);fill-opacity:1;" d="M 3.1875 20.164062 C 3.675781 19.023438 4.359375 18 5.242188 17.117188 C 6.121094 16.238281 7.132812 15.554688 8.269531 15.066406 C 8.671875 14.898438 8.878906 14.410156 8.699219 14.007812 C 8.523438 13.601562 8.0625 13.425781 7.660156 13.59375 C 6.328125 14.15625 5.136719 14.960938 4.105469 15.992188 C 3.085938 17.023438 2.277344 18.214844 1.714844 19.546875 C 1.351562 20.417969 1.097656 21.328125 0.957031 22.265625 C 0.890625 22.753906 1.265625 23.175781 1.753906 23.175781 C 2.148438 23.175781 2.484375 22.882812 2.539062 22.492188 C 2.652344 21.683594 2.867188 20.90625 3.1875 20.164062 Z M 3.1875 20.164062 "/>
</g>
</svg>
