<?xml version="1.0" encoding="UTF-8"?>
<svg xmlns="http://www.w3.org/2000/svg" xmlns:xlink="http://www.w3.org/1999/xlink" width="500px" height="350px" viewBox="0 0 367 350" version="1.1">
<defs>
<filter id="alpha" filterUnits="objectBoundingBox" x="0%" y="0%" width="100%" height="100%">
  <feColorMatrix type="matrix" in="SourceGraphic" values="0 0 0 0 1 0 0 0 0 1 0 0 0 0 1 0 0 0 1 0"/>
</filter>
<mask id="mask0">
  <g filter="url(#alpha)">
<rect x="0" y="0" width="367" height="350" style="fill:rgb(0%,0%,0%);fill-opacity:0.101961;stroke:none;"/>
  </g>
</mask>
<clipPath id="clip1">
  <rect x="0" y="0" width="367" height="350"/>
</clipPath>
<g id="surface5" clip-path="url(#clip1)">
<path style=" stroke:none;fill-rule:nonzero;fill:rgb(0%,0%,0%);fill-opacity:1;" d="M 199.988281 286.363281 C 204.054688 287.652344 221.230469 296.566406 224.175781 299.679688 C 223.78125 299.820312 210.390625 292.246094 209.988281 292.125 C 206.335938 291.019531 202.664062 289.90625 199.195312 288.285156 C 198.5 287.960938 194.664062 286.429688 194.839844 285.542969 C 195.035156 284.539062 199.265625 286.136719 199.988281 286.363281 Z M 199.988281 286.363281 "/>
</g>
<mask id="mask1">
  <g filter="url(#alpha)">
<rect x="0" y="0" width="367" height="350" style="fill:rgb(0%,0%,0%);fill-opacity:0.101961;stroke:none;"/>
  </g>
</mask>
<clipPath id="clip2">
  <rect x="0" y="0" width="367" height="350"/>
</clipPath>
<g id="surface8" clip-path="url(#clip2)">
<path style=" stroke:none;fill-rule:nonzero;fill:rgb(0%,0%,0%);fill-opacity:1;" d="M 270.339844 284.675781 C 267.207031 287.050781 263.152344 289.234375 260.046875 291.671875 C 258.988281 292.5 241.324219 302.523438 241.074219 303.855469 C 243.972656 304.347656 262.421875 291.320312 265.0625 290.019531 C 267.699219 288.722656 270.039062 286.886719 272.359375 285.066406 C 272.949219 284.605469 275.453125 283.210938 273.757812 282.691406 C 272.800781 282.398438 271.042969 284.199219 270.339844 284.675781 Z M 270.339844 284.675781 "/>
</g>
<mask id="mask2">
  <g filter="url(#alpha)">
<rect x="0" y="0" width="367" height="350" style="fill:rgb(0%,0%,0%);fill-opacity:0.2;stroke:none;"/>
  </g>
</mask>
<clipPath id="clip3">
  <rect x="0" y="0" width="367" height="350"/>
</clipPath>
<g id="surface11" clip-path="url(#clip3)">
<path style=" stroke:none;fill-rule:nonzero;fill:rgb(0%,0%,0%);fill-opacity:1;" d="M 154.644531 298.636719 L 154.644531 325.4375 C 146.59375 326.296875 138.59375 323.414062 132.933594 317.617188 C 127.277344 311.820312 124.582031 303.75 125.621094 295.714844 C 134.75 295.949219 144.550781 297.09375 154.644531 298.636719 Z M 154.644531 298.636719 "/>
</g>
</defs>
<g id="surface1">
<path style=" stroke:none;fill-rule:nonzero;fill:rgb(24.705882%,23.921569%,33.72549%);fill-opacity:1;" d="M 367.136719 313.5 C 367.136719 303.175781 292.296875 294.808594 199.980469 294.808594 C 107.660156 294.808594 32.820312 303.175781 32.820312 313.5 C 32.820312 323.824219 107.660156 332.191406 199.980469 332.191406 C 292.296875 332.191406 367.136719 323.824219 367.136719 313.5 Z M 367.136719 313.5 "/>
<path style=" stroke:none;fill-rule:nonzero;fill:rgb(100%,72.156863%,72.156863%);fill-opacity:1;" d="M 282.878906 292.816406 L 285.761719 301.707031 C 285.761719 301.707031 299.648438 316.0625 294.625 319.953125 C 289.605469 323.84375 278.335938 303.332031 278.335938 303.332031 L 276.261719 293.296875 Z M 282.878906 292.816406 "/>
<path style=" stroke:none;fill-rule:nonzero;fill:rgb(47.843137%,43.921569%,72.54902%);fill-opacity:1;" d="M 256.242188 224.015625 L 260.445312 222.613281 C 260.445312 222.613281 266.984375 224.480469 267.917969 231.023438 C 268.851562 237.566406 275.855469 270.742188 275.855469 270.742188 C 275.855469 270.742188 278.65625 272.144531 276.789062 274.480469 C 274.921875 276.816406 286.125 297.847656 286.125 297.847656 L 277.253906 302.050781 C 277.253906 302.050781 259.511719 283.359375 259.511719 281.492188 C 259.511719 279.621094 259.980469 277.753906 259.980469 275.882812 C 259.980469 274.015625 259.511719 274.015625 259.980469 272.613281 C 260.289062 271.390625 260.449219 270.132812 260.445312 268.875 L 257.175781 261.398438 Z M 256.242188 224.015625 "/>
<path style=" stroke:none;fill-rule:nonzero;fill:rgb(47.843137%,43.921569%,72.54902%);fill-opacity:1;" d="M 84.4375 169.859375 C 84.4375 122.246094 65.535156 83.648438 42.21875 83.648438 C 18.902344 83.648438 0 122.246094 0 169.859375 C 0 217.472656 18.902344 256.070312 42.21875 256.070312 C 65.535156 256.070312 84.4375 217.472656 84.4375 169.859375 Z M 84.4375 169.859375 "/>
<path style=" stroke:none;fill-rule:nonzero;fill:rgb(24.705882%,23.921569%,33.72549%);fill-opacity:1;" d="M 41.832031 170.753906 C 43.9375 133.226562 48.179688 107.878906 48.222656 107.625 L 47.300781 107.472656 C 47.257812 107.722656 43.007812 133.109375 40.898438 170.6875 C 38.953125 205.367188 38.484375 257.820312 47.300781 310.773438 L 48.222656 310.621094 C 39.417969 257.757812 39.886719 205.382812 41.832031 170.753906 Z M 41.832031 170.753906 "/>
<path style=" stroke:none;fill-rule:nonzero;fill:rgb(24.705882%,23.921569%,33.72549%);fill-opacity:1;" d="M 41.78125 172.820312 L 79.949219 152.375 L 80.390625 153.199219 L 42.21875 173.644531 Z M 41.78125 172.820312 "/>
<path style=" stroke:none;fill-rule:nonzero;fill:rgb(24.705882%,23.921569%,33.72549%);fill-opacity:1;" d="M 1.484375 163.449219 L 1.921875 162.625 L 40.101562 183.058594 L 39.660156 183.882812 Z M 1.484375 163.449219 "/>
<path style=" stroke:none;fill-rule:nonzero;fill:rgb(90.196078%,90.196078%,90.196078%);fill-opacity:1;" d="M 199.980469 117.972656 C 199.980469 52.816406 174.113281 0 142.207031 0 C 110.300781 0 84.4375 52.816406 84.4375 117.972656 C 84.4375 183.125 110.300781 235.941406 142.207031 235.941406 C 174.113281 235.941406 199.980469 183.125 199.980469 117.972656 Z M 199.980469 117.972656 "/>
<path style=" stroke:none;fill-rule:nonzero;fill:rgb(24.705882%,23.921569%,33.72549%);fill-opacity:1;" d="M 141.507812 119.179688 C 144.386719 67.820312 150.195312 33.128906 150.253906 32.78125 L 149.332031 32.625 C 149.273438 32.972656 143.460938 67.703125 140.574219 119.113281 C 137.910156 166.558594 137.269531 238.328125 149.332031 310.773438 L 150.253906 310.621094 C 138.203125 238.261719 138.847656 166.578125 141.507812 119.179688 Z M 141.507812 119.179688 "/>
<path style=" stroke:none;fill-rule:nonzero;fill:rgb(24.705882%,23.921569%,33.72549%);fill-opacity:1;" d="M 141.6875 122.179688 L 193.925781 94.199219 L 194.363281 95.023438 L 142.128906 123.003906 Z M 141.6875 122.179688 "/>
<path style=" stroke:none;fill-rule:nonzero;fill:rgb(24.705882%,23.921569%,33.72549%);fill-opacity:1;" d="M 86.546875 109.046875 L 86.988281 108.222656 L 139.230469 136.1875 L 138.789062 137.011719 Z M 86.546875 109.046875 "/>
<path style=" stroke:none;fill-rule:nonzero;fill:rgb(90.196078%,90.196078%,90.196078%);fill-opacity:1;" d="M 115.664062 237.835938 C 115.664062 213.492188 106 193.757812 94.082031 193.757812 C 82.160156 193.757812 72.496094 213.492188 72.496094 237.835938 C 72.496094 262.179688 82.160156 281.914062 94.082031 281.914062 C 106 281.914062 115.664062 262.179688 115.664062 237.835938 Z M 115.664062 237.835938 "/>
<path style=" stroke:none;fill-rule:nonzero;fill:rgb(24.705882%,23.921569%,33.72549%);fill-opacity:1;" d="M 94.0625 239.734375 L 94.1875 239.972656 L 113.707031 229.519531 L 113.265625 228.695312 L 94.101562 238.960938 C 95.164062 219.425781 97.332031 206.3125 97.375 206.054688 L 96.453125 205.898438 C 96.40625 206.183594 93.828125 221.753906 92.914062 244.285156 L 73.585938 233.933594 L 73.148438 234.757812 L 92.664062 245.210938 L 92.898438 244.773438 C 92.164062 263.371094 92.574219 286.625 96.453125 309.917969 L 97.375 309.765625 C 93.144531 284.367188 93.050781 259.015625 94.0625 239.734375 Z M 94.0625 239.734375 "/>
<path style=" stroke:none;fill-rule:nonzero;fill:rgb(18.431373%,18.039216%,25.490196%);fill-opacity:1;" d="M 261.957031 179.65625 C 254.453125 166.855469 239.601562 166.257812 239.601562 166.257812 C 239.601562 166.257812 225.132812 164.390625 215.851562 183.886719 C 207.199219 202.058594 195.261719 219.605469 213.929688 223.859375 L 217.300781 213.265625 L 219.390625 224.648438 C 222.046875 224.84375 224.714844 224.886719 227.378906 224.785156 C 247.371094 224.136719 266.414062 224.976562 265.800781 217.734375 C 264.984375 208.109375 269.179688 191.972656 261.957031 179.65625 Z M 261.957031 179.65625 "/>
<path style=" stroke:none;fill-rule:nonzero;fill:rgb(18.431373%,18.039216%,25.490196%);fill-opacity:1;" d="M 209.644531 282.195312 C 209.433594 283.535156 209.128906 284.855469 208.734375 286.152344 C 208.285156 287.417969 207.597656 288.589844 207.1875 289.871094 C 205.886719 293.953125 207.691406 298.503906 210.574219 301.652344 C 213.0625 304.367188 216.289062 306.300781 219.859375 307.21875 C 222.457031 307.878906 225.160156 307.972656 227.839844 308.066406 C 235.253906 308.320312 242.863281 308.546875 249.890625 306.140625 C 252.113281 305.359375 254.257812 304.375 256.296875 303.203125 C 256.941406 302.890625 257.511719 302.4375 257.960938 301.878906 C 258.496094 301.109375 258.566406 300.109375 258.558594 299.167969 C 258.542969 295.996094 257.90625 292.835938 258.058594 289.667969 C 258.140625 287.910156 258.46875 286.15625 258.308594 284.40625 C 257.867188 280.347656 254.925781 277.003906 250.957031 276.046875 C 248.964844 275.613281 246.898438 275.847656 244.867188 276.046875 C 239.597656 276.558594 234.308594 276.796875 229.015625 276.761719 C 223.605469 276.726562 218.234375 275.894531 212.851562 275.804688 C 211.261719 275.78125 211.292969 276.277344 210.785156 277.832031 C 210.320312 279.261719 209.9375 280.71875 209.644531 282.195312 Z M 209.644531 282.195312 "/>
<path style=" stroke:none;fill-rule:nonzero;fill:rgb(18.431373%,18.039216%,25.490196%);fill-opacity:1;" d="M 188.496094 279.617188 C 187.042969 279.246094 185.542969 279.085938 184.042969 279.136719 C 180.859375 279.339844 177.90625 280.886719 175.929688 283.398438 C 173.972656 285.941406 173.175781 289.195312 173.730469 292.359375 C 174.09375 294.054688 174.6875 295.691406 175.496094 297.222656 C 176.675781 299.640625 178.089844 302.054688 180.277344 303.605469 C 181.589844 304.457031 183.007812 305.136719 184.496094 305.632812 L 196.003906 310.007812 C 197.699219 310.652344 199.390625 311.296875 201.101562 311.894531 C 209.6875 314.890625 218.644531 316.6875 227.722656 317.234375 C 230.484375 317.402344 233.292969 317.449219 235.988281 316.8125 C 236.648438 316.726562 237.25 316.398438 237.679688 315.890625 C 237.898438 315.503906 238.03125 315.074219 238.058594 314.628906 L 238.765625 309.625 C 238.925781 308.925781 238.90625 308.203125 238.707031 307.515625 C 238.382812 306.671875 237.570312 306.144531 236.792969 305.695312 C 229.226562 301.308594 220.390625 298.886719 214.023438 292.867188 C 212.523438 291.449219 211.269531 289.203125 209.445312 288.238281 C 207.382812 287.148438 204.949219 286.523438 202.8125 285.515625 C 198.144531 283.316406 193.554688 280.789062 188.496094 279.617188 Z M 188.496094 279.617188 "/>
<use xlink:href="#surface5" mask="url(#mask0)"/>
<path style=" stroke:none;fill-rule:nonzero;fill:rgb(100%,72.156863%,72.156863%);fill-opacity:1;" d="M 250.738281 319.832031 C 250.972656 319.847656 251.199219 319.78125 251.386719 319.640625 C 251.550781 319.425781 251.621094 319.15625 251.585938 318.890625 L 251.566406 312.074219 C 249.625 311.136719 247.453125 310.839844 245.320312 310.550781 L 235.367188 309.207031 C 235.597656 309.238281 233.8125 313.535156 234.085938 314.109375 C 234.570312 315.121094 238.253906 316.015625 239.292969 316.492188 C 242.910156 318.152344 246.667969 319.976562 250.738281 319.832031 Z M 250.738281 319.832031 "/>
<path style=" stroke:none;fill-rule:nonzero;fill:rgb(100%,72.156863%,72.156863%);fill-opacity:1;" d="M 219.519531 312.050781 C 217.640625 312.351562 215.542969 312.617188 214.328125 314.09375 C 212.785156 315.964844 213.441406 318.757812 214.175781 321.078125 C 214.285156 321.546875 214.507812 321.980469 214.816406 322.347656 C 215.320312 322.847656 216.089844 322.921875 216.792969 322.964844 C 218.507812 323.074219 220.332031 323.160156 221.828125 322.3125 C 222.507812 321.859375 223.160156 321.371094 223.78125 320.84375 C 224.886719 320.105469 226.097656 319.542969 227.378906 319.1875 C 229.726562 318.441406 232.144531 317.9375 234.59375 317.683594 C 235.5625 317.640625 236.515625 317.46875 237.4375 317.179688 C 238.375 316.871094 239.113281 316.148438 239.441406 315.21875 C 239.789062 313.976562 239.074219 312.714844 238.390625 311.628906 C 237.539062 310.273438 236.632812 308.847656 235.363281 307.851562 C 233.507812 306.398438 232.59375 307.515625 230.722656 308.445312 C 227.191406 310.203125 223.414062 311.421875 219.519531 312.050781 Z M 219.519531 312.050781 "/>
<path style=" stroke:none;fill-rule:nonzero;fill:rgb(18.431373%,18.039216%,25.490196%);fill-opacity:1;" d="M 214.609375 313.757812 L 202.679688 310.199219 C 201.25 309.695312 199.753906 309.402344 198.242188 309.328125 C 196.726562 309.332031 195.144531 309.832031 194.164062 310.992188 C 193.238281 312.089844 192.972656 313.585938 192.742188 315.007812 L 192.25 318.046875 C 191.921875 319.582031 191.828125 321.15625 191.972656 322.714844 C 192.199219 324.265625 192.984375 325.8125 194.34375 326.5625 C 195.996094 327.46875 198.019531 327.027344 199.859375 326.644531 C 203.582031 325.878906 207.367188 325.46875 211.164062 325.421875 C 212.59375 325.40625 214.089844 325.421875 215.351562 324.746094 C 216.851562 323.945312 217.75 322.25 217.90625 320.542969 C 218.140625 317.945312 217.28125 314.554688 214.609375 313.757812 Z M 214.609375 313.757812 "/>
<path style=" stroke:none;fill-rule:nonzero;fill:rgb(18.431373%,18.039216%,25.490196%);fill-opacity:1;" d="M 255.429688 310.65625 C 256.976562 310.382812 258.339844 309.496094 259.824219 308.972656 C 261.910156 308.234375 264.167969 308.234375 266.378906 308.242188 C 267.191406 308.246094 268.054688 308.261719 268.730469 308.71875 C 269.703125 309.371094 269.953125 310.679688 270.117188 311.847656 L 271.117188 318.898438 C 271.304688 320.226562 271.492188 321.585938 271.199219 322.894531 C 270.90625 324.199219 270.023438 325.460938 268.738281 325.796875 C 267.179688 326.207031 265.648438 325.199219 264.175781 324.539062 C 260.496094 322.890625 256.214844 323.3125 252.375 322.078125 C 251.664062 321.847656 250.902344 321.496094 250.609375 320.800781 C 250.480469 320.410156 250.433594 319.996094 250.472656 319.582031 C 250.539062 317.316406 250.066406 314.222656 250.742188 312.054688 C 251.347656 310.109375 253.703125 310.65625 255.429688 310.65625 Z M 255.429688 310.65625 "/>
<path style=" stroke:none;fill-rule:nonzero;fill:rgb(18.431373%,18.039216%,25.490196%);fill-opacity:1;" d="M 280.675781 276.777344 C 283.058594 276.175781 285.53125 276.003906 287.972656 276.273438 C 289.921875 276.492188 291.933594 277.039062 293.359375 278.402344 C 295.089844 280.0625 295.648438 282.628906 295.695312 285.039062 C 295.773438 289.835938 294.195312 294.511719 291.230469 298.28125 C 290.507812 299.230469 289.648438 300.066406 288.679688 300.757812 C 287.636719 301.417969 286.519531 301.960938 285.359375 302.375 L 259.582031 312.636719 C 252.800781 315.335938 245.996094 318.046875 238.921875 319.824219 C 238.53125 320.015625 238.082031 320.039062 237.671875 319.886719 C 237.265625 319.738281 236.933594 319.429688 236.757812 319.03125 C 234.496094 315.773438 232.601562 312.273438 231.109375 308.601562 C 230.972656 308.363281 230.945312 308.078125 231.035156 307.820312 C 231.128906 307.675781 231.261719 307.5625 231.414062 307.492188 L 249.648438 296.917969 C 250.984375 296.214844 252.230469 295.347656 253.359375 294.335938 C 254.148438 293.566406 254.792969 292.660156 255.261719 291.660156 C 255.640625 290.863281 255.675781 288.984375 256.160156 288.394531 C 256.632812 287.816406 258.25 287.769531 258.996094 287.542969 C 260.046875 287.21875 261.078125 286.824219 262.082031 286.367188 C 266.160156 284.523438 269.792969 281.847656 273.703125 279.691406 C 275.890625 278.425781 278.234375 277.449219 280.675781 276.777344 Z M 280.675781 276.777344 "/>
<use xlink:href="#surface8" mask="url(#mask1)"/>
<path style=" stroke:none;fill-rule:nonzero;fill:rgb(100%,72.156863%,72.156863%);fill-opacity:1;" d="M 256.710938 194.109375 C 256.710938 203.914062 248.765625 211.863281 238.96875 211.863281 C 229.167969 211.863281 221.226562 203.914062 221.226562 194.109375 C 221.226562 184.300781 229.167969 176.351562 238.96875 176.351562 C 248.765625 176.351562 256.710938 184.300781 256.710938 194.109375 Z M 256.710938 194.109375 "/>
<path style=" stroke:none;fill-rule:nonzero;fill:rgb(100%,72.156863%,72.156863%);fill-opacity:1;" d="M 246.4375 209.0625 C 246.4375 209.0625 243.636719 216.070312 248.773438 218.875 C 253.910156 221.675781 232.898438 244.109375 232.898438 244.109375 L 223.558594 217.003906 C 223.558594 217.003906 231.496094 214.199219 230.097656 206.722656 Z M 246.4375 209.0625 "/>
<path style=" stroke:none;fill-rule:nonzero;fill:rgb(47.843137%,43.921569%,72.54902%);fill-opacity:1;" d="M 234.765625 228.21875 L 246.074219 215.726562 L 261.378906 223.546875 L 259.046875 278.6875 L 255.308594 282.894531 C 255.308594 282.894531 239.433594 296.910156 215.15625 285.230469 C 215.15625 285.230469 206.75 278.21875 207.21875 267.472656 C 207.683594 256.722656 206.285156 255.324219 206.285156 255.324219 L 205.816406 217.472656 L 228.867188 212.945312 Z M 234.765625 228.21875 "/>
<path style=" stroke:none;fill-rule:nonzero;fill:rgb(100%,72.156863%,72.156863%);fill-opacity:1;" d="M 182.914062 287.675781 L 180.03125 296.566406 C 180.03125 296.566406 166.148438 310.921875 171.167969 314.8125 C 176.191406 318.703125 187.457031 298.191406 187.457031 298.191406 L 189.535156 288.15625 Z M 182.914062 287.675781 "/>
<path style=" stroke:none;fill-rule:nonzero;fill:rgb(47.843137%,43.921569%,72.54902%);fill-opacity:1;" d="M 209.550781 218.875 L 205.347656 217.472656 C 205.347656 217.472656 198.8125 219.339844 197.878906 225.882812 C 196.945312 232.425781 189.941406 265.601562 189.941406 265.601562 C 189.941406 265.601562 187.140625 267.003906 189.007812 269.339844 C 190.875 271.675781 179.667969 292.707031 179.667969 292.707031 L 188.539062 296.910156 C 188.539062 296.910156 206.285156 278.21875 206.285156 276.351562 C 206.285156 274.480469 205.816406 272.613281 205.816406 270.742188 C 205.816406 268.875 206.285156 268.875 205.816406 267.472656 C 205.503906 266.25 205.347656 264.996094 205.347656 263.734375 L 208.617188 256.257812 Z M 209.550781 218.875 "/>
<path style=" stroke:none;fill-rule:nonzero;fill:rgb(18.431373%,18.039216%,25.490196%);fill-opacity:1;" d="M 258.640625 178.421875 L 243.96875 170.664062 L 223.710938 173.839844 L 219.519531 192.527344 L 229.953125 192.121094 L 232.867188 185.253906 L 232.867188 192.007812 L 237.683594 191.820312 L 240.476562 180.890625 L 242.222656 192.527344 L 259.335938 192.171875 Z M 258.640625 178.421875 "/>
<path style=" stroke:none;fill-rule:nonzero;fill:rgb(100%,39.607843%,51.764706%);fill-opacity:1;" d="M 154.644531 298.636719 L 154.644531 325.589844 L 72.382812 325.589844 C 72.386719 310.703125 84.441406 298.636719 99.316406 298.636719 C 107.03125 296.230469 115.949219 295.460938 125.621094 295.714844 C 134.75 295.949219 144.550781 297.09375 154.644531 298.636719 Z M 154.644531 298.636719 "/>
<path style=" stroke:none;fill-rule:nonzero;fill:rgb(24.705882%,23.921569%,33.72549%);fill-opacity:1;" d="M 142.894531 319.710938 L 181.578125 319.710938 C 182.929688 319.710938 184.027344 320.804688 184.027344 322.160156 C 184.027344 323.511719 182.929688 324.609375 181.578125 324.609375 L 142.894531 324.609375 Z M 142.894531 319.710938 "/>
<path style=" stroke:none;fill-rule:nonzero;fill:rgb(24.705882%,23.921569%,33.72549%);fill-opacity:1;" d="M 149.59375 275.570312 L 159.964844 262.992188 C 160.453125 261.96875 161.523438 261.355469 162.648438 261.453125 C 163.777344 261.550781 164.726562 262.335938 165.035156 263.425781 L 169.125 277.875 Z M 149.59375 275.570312 "/>
<path style=" stroke:none;fill-rule:nonzero;fill:rgb(100%,39.607843%,51.764706%);fill-opacity:1;" d="M 137.019531 281.976562 L 140.9375 266.148438 C 140.9375 265.015625 141.636719 264 142.695312 263.597656 C 143.753906 263.199219 144.949219 263.496094 145.699219 264.34375 L 155.625 275.605469 Z M 137.019531 281.976562 "/>
<path style=" stroke:none;fill-rule:nonzero;fill:rgb(100%,39.607843%,51.764706%);fill-opacity:1;" d="M 72.382812 325.589844 L 80.21875 325.589844 L 80.21875 342.25 C 80.21875 346.582031 76.710938 350.09375 72.382812 350.09375 Z M 72.382812 325.589844 "/>
<path style=" stroke:none;fill-rule:nonzero;fill:rgb(100%,39.607843%,51.764706%);fill-opacity:1;" d="M 141.425781 320.6875 L 180.109375 320.6875 C 181.460938 320.6875 182.558594 321.785156 182.558594 323.140625 C 182.558594 324.492188 181.460938 325.589844 180.109375 325.589844 L 141.425781 325.589844 Z M 141.425781 320.6875 "/>
<use xlink:href="#surface11" mask="url(#mask2)"/>
<path style=" stroke:none;fill-rule:nonzero;fill:rgb(100%,39.607843%,51.764706%);fill-opacity:1;" d="M 181.089844 299.128906 C 181.089844 313.742188 169.25 325.589844 154.648438 325.589844 C 140.042969 325.589844 128.207031 313.742188 128.207031 299.128906 C 128.207031 284.511719 140.042969 272.664062 154.648438 272.664062 C 169.25 272.664062 181.089844 284.511719 181.089844 299.128906 Z M 181.089844 299.128906 "/>
<path style=" stroke:none;fill-rule:nonzero;fill:rgb(24.705882%,23.921569%,33.72549%);fill-opacity:1;" d="M 183.046875 301.085938 C 183.046875 297.296875 181.730469 294.226562 180.109375 294.226562 C 178.488281 294.226562 177.171875 297.296875 177.171875 301.085938 C 177.171875 304.875 178.488281 307.949219 180.109375 307.949219 C 181.730469 307.949219 183.046875 304.875 183.046875 301.085938 Z M 183.046875 301.085938 "/>
<path style=" stroke:none;fill-rule:nonzero;fill:rgb(24.705882%,23.921569%,33.72549%);fill-opacity:1;" d="M 173.742188 293.980469 C 173.742188 293.035156 173.414062 292.265625 173.007812 292.265625 C 172.605469 292.265625 172.273438 293.035156 172.273438 293.980469 C 172.273438 294.929688 172.605469 295.695312 173.007812 295.695312 C 173.414062 295.695312 173.742188 294.929688 173.742188 293.980469 Z M 173.742188 293.980469 "/>
<path style=" stroke:none;fill-rule:nonzero;fill:rgb(24.705882%,23.921569%,33.72549%);fill-opacity:1;" d="M 179.128906 290.550781 C 179.128906 289.605469 178.800781 288.835938 178.394531 288.835938 C 177.988281 288.835938 177.660156 289.605469 177.660156 290.550781 C 177.660156 291.5 177.988281 292.265625 178.394531 292.265625 C 178.800781 292.265625 179.128906 291.5 179.128906 290.550781 Z M 179.128906 290.550781 "/>
<path style=" stroke:none;fill-rule:nonzero;fill:rgb(24.705882%,23.921569%,33.72549%);fill-opacity:1;" d="M 152.429688 272.371094 C 152.429688 272.371094 150.957031 269.8125 150.957031 268.25 "/>
<path style=" stroke:none;fill-rule:nonzero;fill:rgb(24.705882%,23.921569%,33.72549%);fill-opacity:1;" d="M 153.074219 270.714844 C 153.074219 270.714844 153.875 267.875 154.992188 266.785156 "/>
</g>
</svg>
