<?xml version="1.0" encoding="UTF-8"?>
<svg xmlns="http://www.w3.org/2000/svg" xmlns:xlink="http://www.w3.org/1999/xlink" width="500px" height="350px" viewBox="0 0 202 350" version="1.1">
<g id="surface1">
<path style=" stroke:none;fill-rule:nonzero;fill:rgb(28.235294%,27.058824%,39.607843%);fill-opacity:1;" d="M 28.234375 349.488281 C 28.234375 349.925781 28.585938 350.28125 29.023438 350.28125 L 201.015625 350.28125 C 201.457031 350.28125 201.808594 349.925781 201.808594 349.488281 C 201.808594 349.046875 201.457031 348.691406 201.015625 348.691406 L 29.023438 348.691406 C 28.585938 348.691406 28.234375 349.046875 28.234375 349.488281 Z M 28.234375 349.488281 "/>
<path style=" stroke:none;fill-rule:nonzero;fill:rgb(18.431373%,18.039216%,25.490196%);fill-opacity:1;" d="M 118.683594 0.21875 C 118.683594 0.21875 104.121094 -3.320312 95.3125 18.066406 C 87.96875 35.894531 82.761719 45.414062 88.71875 51.878906 C 90.851562 54.191406 93.898438 55.441406 97.03125 55.546875 L 130.589844 56.652344 C 130.589844 56.652344 142.910156 24.238281 135.417969 12.519531 C 127.929688 0.792969 118.683594 0.21875 118.683594 0.21875 Z M 118.683594 0.21875 "/>
<path style=" stroke:none;fill-rule:nonzero;fill:rgb(96.470588%,65.098039%,66.27451%);fill-opacity:1;" d="M 125.632812 53.960938 L 109.492188 59.285156 L 109.492188 35.972656 L 124.136719 35.972656 Z M 125.632812 53.960938 "/>
<path style=" stroke:none;fill-rule:nonzero;fill:rgb(96.470588%,65.098039%,66.27451%);fill-opacity:1;" d="M 113.246094 336.460938 L 98.121094 336.460938 L 89.359375 255.40625 L 112.726562 255.40625 Z M 113.246094 336.460938 "/>
<path style=" stroke:none;fill-rule:nonzero;fill:rgb(18.431373%,18.039216%,25.490196%);fill-opacity:1;" d="M 83.398438 349.488281 C 81.808594 349.488281 80.394531 349.445312 79.324219 349.347656 C 75.304688 348.980469 71.476562 346.007812 69.550781 344.265625 C 68.6875 343.488281 68.40625 342.238281 68.859375 341.167969 C 69.183594 340.394531 69.828125 339.820312 70.625 339.59375 L 81.238281 336.554688 L 98.421875 324.921875 L 98.613281 325.265625 C 98.6875 325.394531 100.375 328.445312 100.941406 330.507812 C 101.152344 331.292969 101.101562 331.945312 100.773438 332.445312 C 100.546875 332.800781 100.234375 333 99.976562 333.113281 C 100.289062 333.441406 101.265625 334.101562 104.261719 334.578125 C 108.648438 335.28125 109.566406 330.71875 109.605469 330.527344 L 109.632812 330.375 L 109.765625 330.285156 C 111.851562 328.941406 113.132812 328.328125 113.578125 328.453125 C 113.859375 328.535156 114.316406 328.671875 115.558594 341.085938 C 115.683594 341.472656 116.554688 344.332031 115.964844 347.058594 C 115.320312 350.035156 102.382812 349.007812 99.789062 348.773438 C 99.71875 348.78125 90.03125 349.472656 83.390625 349.472656 L 83.390625 349.488281 Z M 83.398438 349.488281 "/>
<path style=" stroke:none;fill-rule:nonzero;fill:rgb(96.470588%,65.098039%,66.27451%);fill-opacity:1;" d="M 147.398438 336.460938 L 132.285156 336.460938 L 123.511719 255.40625 L 146.882812 255.40625 Z M 147.398438 336.460938 "/>
<path style=" stroke:none;fill-rule:nonzero;fill:rgb(18.431373%,18.039216%,25.490196%);fill-opacity:1;" d="M 117.558594 349.488281 C 115.96875 349.488281 114.554688 349.445312 113.484375 349.347656 C 109.464844 348.980469 105.636719 346.007812 103.710938 344.265625 C 102.847656 343.488281 102.566406 342.238281 103.019531 341.167969 C 103.34375 340.394531 103.988281 339.820312 104.789062 339.59375 L 115.398438 336.554688 L 132.582031 324.921875 L 132.773438 325.265625 C 132.847656 325.394531 134.535156 328.445312 135.101562 330.507812 C 135.3125 331.292969 135.261719 331.945312 134.933594 332.445312 C 134.707031 332.800781 134.394531 333 134.136719 333.113281 C 134.449219 333.441406 135.425781 334.101562 138.421875 334.578125 C 142.808594 335.28125 143.726562 330.71875 143.765625 330.527344 L 143.792969 330.375 L 143.925781 330.285156 C 146.011719 328.941406 147.292969 328.328125 147.738281 328.453125 C 148.019531 328.535156 148.476562 328.671875 149.71875 341.085938 C 149.84375 341.472656 150.714844 344.332031 150.125 347.058594 C 149.480469 350.035156 136.542969 349.007812 133.953125 348.773438 C 133.878906 348.78125 124.191406 349.472656 117.550781 349.472656 L 117.550781 349.488281 Z M 117.558594 349.488281 "/>
<path style=" stroke:none;fill-rule:nonzero;fill:rgb(86.666667%,87.058824%,87.45098%);fill-opacity:1;" d="M 151.753906 137.378906 L 78.289062 137.378906 L 104.695312 50.1875 L 133.984375 50.1875 Z M 151.753906 137.378906 "/>
<path style=" stroke:none;fill-rule:nonzero;fill:rgb(96.470588%,65.098039%,66.27451%);fill-opacity:1;" d="M 76.289062 186.308594 C 75.410156 191.648438 71.863281 195.480469 68.359375 194.859375 C 64.859375 194.238281 62.726562 189.414062 63.601562 184.074219 C 63.921875 181.933594 64.765625 179.914062 66.0625 178.171875 L 70.0625 155.59375 L 80.953125 157.878906 L 75.851562 179.894531 C 76.519531 181.972656 76.671875 184.171875 76.292969 186.308594 Z M 76.289062 186.308594 "/>
<path style=" stroke:none;fill-rule:nonzero;fill:rgb(86.666667%,87.058824%,87.45098%);fill-opacity:1;" d="M 109.320312 50.199219 C 109.320312 50.199219 91.074219 49.71875 89.152344 54.535156 C 87.230469 59.351562 64.667969 174.007812 64.667969 174.007812 L 79.550781 174.007812 C 79.550781 174.007812 109.320312 50.199219 109.320312 50.199219 Z M 109.320312 50.199219 "/>
<path style=" stroke:none;fill-rule:nonzero;fill:rgb(96.470588%,65.098039%,66.27451%);fill-opacity:1;" d="M 129.28125 25.339844 C 129.28125 34.253906 122.078125 41.480469 113.191406 41.480469 C 104.308594 41.480469 97.105469 34.253906 97.105469 25.339844 C 97.105469 16.425781 104.308594 9.199219 113.191406 9.199219 C 122.078125 9.199219 129.28125 16.425781 129.28125 25.339844 Z M 129.28125 25.339844 "/>
<path style=" stroke:none;fill-rule:nonzero;fill:rgb(18.431373%,18.039216%,25.490196%);fill-opacity:1;" d="M 115.71875 5.546875 C 115.71875 5.546875 95.066406 36.367188 98.542969 55.59375 L 86.527344 48.039062 C 86.527344 48.039062 94.988281 9.121094 107.589844 6.101562 L 115.71875 5.539062 C 115.71875 5.539062 115.71875 5.546875 115.71875 5.546875 Z M 115.71875 5.546875 "/>
<path style=" stroke:none;fill-rule:nonzero;fill:rgb(18.431373%,18.039216%,25.490196%);fill-opacity:1;" d="M 136.484375 137.378906 L 88.273438 137.378906 L 61.894531 246 C 61.410156 250.585938 64.308594 254.867188 68.753906 256.058594 C 83.226562 259.945312 117.949219 265.460938 170.515625 250.113281 C 175.574219 248.640625 178.445312 243.285156 176.855469 238.246094 L 136.484375 137.386719 C 136.484375 137.386719 136.484375 137.378906 136.484375 137.378906 Z M 136.484375 137.378906 "/>
<path style=" stroke:none;fill-rule:nonzero;fill:rgb(47.843137%,43.921569%,72.54902%);fill-opacity:1;" d="M 71.464844 65.652344 L 71.132812 65.320312 L 70.800781 65.652344 C 54.632812 49.445312 28.433594 49.464844 12.28125 65.6875 C -3.875 81.914062 -4.199219 108.527344 11.96875 124.734375 L 71.171875 184.074219 L 130.335938 124.660156 C 146.488281 108.433594 146.152344 81.820312 129.992188 65.613281 C 113.824219 49.40625 87.625 49.425781 71.472656 65.648438 Z M 71.464844 65.652344 "/>
<path style=" stroke:none;fill-rule:nonzero;fill:rgb(86.666667%,87.058824%,87.45098%);fill-opacity:1;" d="M 115.1875 58.347656 L 128.542969 51.472656 C 134.648438 49.207031 141.460938 49.964844 146.921875 53.535156 C 163.535156 64.375 196.277344 88.273438 182.207031 100.085938 C 163.660156 115.660156 138.589844 88.039062 138.589844 88.039062 Z M 115.1875 58.347656 "/>
<path style=" stroke:none;fill-rule:nonzero;fill:rgb(96.470588%,65.098039%,66.27451%);fill-opacity:1;" d="M 114.894531 70.09375 C 110.25 67.347656 107.96875 62.640625 109.8125 59.578125 C 111.652344 56.527344 116.90625 56.28125 121.558594 59.027344 C 123.433594 60.101562 125.007812 61.621094 126.148438 63.460938 L 145.6875 75.367188 L 139.625 84.726562 L 121.007812 71.992188 C 118.828125 71.867188 116.726562 71.214844 114.886719 70.085938 L 114.894531 70.085938 Z M 114.894531 70.09375 "/>
<path style=" stroke:none;fill-rule:nonzero;fill:rgb(86.666667%,87.058824%,87.45098%);fill-opacity:1;" d="M 128.171875 80.886719 L 133.726562 67.574219 L 160.867188 76.585938 L 148.730469 96.859375 Z M 128.171875 80.886719 "/>
</g>
</svg>
