<?xml version="1.0" encoding="UTF-8"?>
<svg xmlns="http://www.w3.org/2000/svg" xmlns:xlink="http://www.w3.org/1999/xlink" width="500px" height="350px" viewBox="0 0 512 350" version="1.1">
<defs>
<filter id="alpha" filterUnits="objectBoundingBox" x="0%" y="0%" width="100%" height="100%">
  <feColorMatrix type="matrix" in="SourceGraphic" values="0 0 0 0 1 0 0 0 0 1 0 0 0 0 1 0 0 0 1 0"/>
</filter>
<mask id="mask0">
  <g filter="url(#alpha)">
<rect x="0" y="0" width="512" height="350" style="fill:rgb(0%,0%,0%);fill-opacity:0.101961;stroke:none;"/>
  </g>
</mask>
<clipPath id="clip1">
  <rect x="0" y="0" width="512" height="350"/>
</clipPath>
<g id="surface5" clip-path="url(#clip1)">
<path style=" stroke:none;fill-rule:nonzero;fill:rgb(0%,0%,0%);fill-opacity:1;" d="M 335.710938 59.742188 L 339.242188 46.160156 L 352.988281 45.5 L 357.105469 64.21875 Z M 335.710938 59.742188 "/>
</g>
</defs>
<g id="surface1">
<path style=" stroke:none;fill-rule:nonzero;fill:rgb(94.901961%,94.901961%,94.901961%);fill-opacity:1;" d="M 84.605469 246.832031 C 82.140625 247.097656 79.449219 247.496094 76.585938 248.082031 C 64.445312 250.554688 64.195312 258.804688 64.300781 260.695312 L 64.21875 260.644531 C 62.996094 262.605469 62.234375 264.589844 61.769531 266.460938 L 61.214844 241.175781 C 61.574219 240.425781 61.902344 239.574219 62.175781 238.703125 C 63.082031 241.503906 64.574219 244.148438 65.855469 243.972656 C 67.527344 243.746094 68.253906 238.828125 67.941406 235.332031 C 70.066406 238.070312 73.636719 240.996094 74.988281 240.09375 C 76.0625 239.375 75.425781 236.40625 74.25 233.703125 C 76.699219 235.183594 79.414062 236.152344 80.253906 235.214844 C 81.402344 233.933594 78.652344 229.566406 76.109375 227.128906 C 79.511719 227.445312 83.832031 226.902344 84.117188 225.355469 C 84.351562 224.078125 81.777344 222.46875 79.023438 221.433594 C 81.789062 220.703125 84.375 219.429688 84.289062 218.171875 C 84.1875 216.675781 80.347656 215.675781 77.035156 215.523438 C 79.535156 213.566406 81.832031 210.863281 81.128906 209.636719 C 80.484375 208.511719 77.480469 208.949219 74.710938 209.941406 C 76.347656 207.59375 77.5 204.949219 76.625 204.042969 C 75.53125 202.917969 71.648438 204.863281 69 207.011719 C 69.515625 203.664062 69.253906 199.433594 67.753906 199.050781 C 66.5 198.730469 64.71875 201.191406 63.5 203.871094 C 62.960938 201.058594 61.867188 198.390625 60.609375 198.390625 C 58.8125 198.390625 57.359375 203.808594 57.359375 207.335938 C 57.359375 207.535156 57.363281 207.722656 57.371094 207.902344 C 57.191406 207.695312 56.984375 207.476562 56.75 207.246094 C 54.21875 204.789062 49.324219 202.058594 48.074219 203.347656 C 47.195312 204.253906 48.347656 206.894531 49.988281 209.242188 C 47.21875 208.25 44.214844 207.816406 43.570312 208.941406 C 42.703125 210.453125 46.410156 214.226562 49.421875 216.054688 C 49.242188 216.03125 49.050781 216.015625 48.847656 216 C 45.332031 215.761719 39.832031 216.84375 39.710938 218.636719 C 39.625 219.894531 42.210938 221.167969 44.976562 221.898438 C 42.222656 222.933594 39.652344 224.542969 39.882812 225.820312 C 40.167969 227.367188 44.492188 227.910156 47.890625 227.59375 C 45.351562 230.03125 42.597656 234.398438 43.746094 235.679688 C 44.589844 236.617188 47.300781 235.648438 49.75 234.167969 C 48.574219 236.867188 47.9375 239.839844 49.015625 240.558594 C 50.4375 241.511719 54.339844 238.195312 56.398438 235.339844 C 56.191406 238.832031 57.023438 243.628906 58.679688 243.820312 C 59.375 243.898438 60.105469 243.160156 60.769531 242.019531 L 58.894531 269.199219 C 58.457031 272.367188 61.261719 274.429688 61.511719 275.734375 L 61.914062 294.140625 C 61.457031 292.828125 60.84375 291.488281 60.015625 290.15625 L 59.933594 290.207031 C 60.039062 288.316406 59.785156 280.066406 47.648438 277.59375 C 44.785156 277.007812 42.09375 276.609375 39.625 276.34375 C 36.714844 276.03125 35.578125 280.019531 38.210938 281.308594 C 42.019531 283.175781 45.601562 285.527344 47.472656 288.3125 C 52.246094 295.433594 58.847656 291.316406 59.785156 290.679688 C 60.832031 292.425781 61.519531 294.183594 61.953125 295.859375 L 62.167969 305.632812 C 62.117188 305.863281 62.078125 305.992188 62.078125 306.003906 L 62.175781 306.03125 L 62.695312 329.6875 L 67.519531 329.648438 L 65.796875 305.46875 C 66.085938 304.164062 66.976562 299.722656 65.796875 295.105469 L 64.070312 276.109375 C 64.066406 276.09375 64.167969 276.609375 64.070312 276.109375 L 61.820312 268.644531 C 62.148438 266.335938 62.90625 263.738281 64.449219 261.167969 C 65.386719 261.804688 71.984375 265.921875 76.761719 258.800781 C 78.628906 256.015625 82.214844 253.664062 86.023438 251.796875 C 88.652344 250.507812 87.519531 246.519531 84.605469 246.832031 Z M 62.570312 302.800781 L 62.480469 298.664062 C 62.664062 300.226562 62.652344 301.640625 62.570312 302.800781 Z M 62.570312 302.800781 "/>
<path style=" stroke:none;fill-rule:nonzero;fill:rgb(94.901961%,94.901961%,94.901961%);fill-opacity:1;" d="M 453.777344 246.832031 C 451.308594 247.097656 448.617188 247.496094 445.753906 248.082031 C 433.617188 250.554688 433.363281 258.804688 433.472656 260.695312 L 433.390625 260.644531 C 432.167969 262.605469 431.402344 264.589844 430.941406 266.460938 L 430.386719 241.175781 C 430.746094 240.425781 431.074219 239.574219 431.34375 238.703125 C 432.253906 241.503906 433.742188 244.148438 435.027344 243.972656 C 436.695312 243.746094 437.425781 238.828125 437.113281 235.332031 C 439.238281 238.070312 442.808594 240.996094 444.15625 240.09375 C 445.234375 239.375 444.597656 236.40625 443.417969 233.703125 C 445.871094 235.183594 448.582031 236.152344 449.425781 235.214844 C 450.574219 233.933594 447.820312 229.566406 445.28125 227.128906 C 448.679688 227.445312 453.003906 226.902344 453.289062 225.355469 C 453.519531 224.078125 450.949219 222.46875 448.195312 221.433594 C 450.960938 220.703125 453.546875 219.429688 453.460938 218.171875 C 453.359375 216.675781 449.519531 215.675781 446.207031 215.523438 C 448.703125 213.566406 451 210.863281 450.296875 209.636719 C 449.652344 208.511719 446.652344 208.949219 443.878906 209.941406 C 445.519531 207.59375 446.671875 204.949219 445.792969 204.042969 C 444.699219 202.917969 440.820312 204.863281 438.171875 207.011719 C 438.6875 203.664062 438.425781 199.433594 436.925781 199.050781 C 435.667969 198.730469 433.890625 201.191406 432.667969 203.871094 C 432.128906 201.058594 431.039062 198.390625 429.777344 198.390625 C 427.984375 198.390625 426.527344 203.808594 426.527344 207.335938 C 426.527344 207.535156 426.535156 207.722656 426.542969 207.902344 C 426.363281 207.695312 426.15625 207.476562 425.921875 207.246094 C 423.390625 204.789062 418.496094 202.058594 417.246094 203.347656 C 416.367188 204.253906 417.519531 206.894531 419.160156 209.242188 C 416.386719 208.25 413.386719 207.816406 412.738281 208.941406 C 411.871094 210.453125 415.578125 214.226562 418.59375 216.054688 C 418.414062 216.03125 418.222656 216.015625 418.019531 216 C 414.5 215.761719 409.003906 216.84375 408.882812 218.636719 C 408.796875 219.894531 411.382812 221.167969 414.148438 221.898438 C 411.394531 222.933594 408.820312 224.542969 409.054688 225.820312 C 409.339844 227.367188 413.660156 227.910156 417.058594 227.59375 C 414.519531 230.03125 411.765625 234.398438 412.917969 235.679688 C 413.757812 236.617188 416.472656 235.648438 418.921875 234.167969 C 417.746094 236.867188 417.109375 239.839844 418.183594 240.558594 C 419.609375 241.511719 423.511719 238.195312 425.570312 235.339844 C 425.359375 238.832031 426.195312 243.628906 427.851562 243.820312 C 428.542969 243.898438 429.277344 243.160156 429.941406 242.019531 L 428.066406 269.199219 C 427.625 272.367188 430.429688 274.429688 430.683594 275.734375 L 431.085938 294.140625 C 430.628906 292.828125 430.015625 291.488281 429.183594 290.15625 L 429.101562 290.207031 C 429.210938 288.316406 428.957031 280.066406 416.820312 277.59375 C 413.957031 277.007812 411.265625 276.609375 408.796875 276.34375 C 405.886719 276.03125 404.75 280.019531 407.378906 281.308594 C 411.191406 283.175781 414.773438 285.527344 416.640625 288.3125 C 421.417969 295.433594 428.015625 291.316406 428.953125 290.679688 C 430.003906 292.425781 430.691406 294.183594 431.125 295.859375 L 431.339844 305.632812 C 431.285156 305.863281 431.25 305.992188 431.246094 306.003906 L 431.347656 306.03125 L 431.867188 329.6875 L 436.691406 329.648438 L 434.964844 305.46875 C 435.257812 304.164062 436.148438 299.722656 434.964844 295.105469 L 433.242188 276.109375 C 433.238281 276.09375 433.339844 276.609375 433.242188 276.109375 L 430.988281 268.644531 C 431.316406 266.335938 432.078125 263.738281 433.621094 261.167969 C 434.558594 261.804688 441.15625 265.921875 445.933594 258.800781 C 447.800781 256.015625 451.382812 253.664062 455.195312 251.796875 C 457.824219 250.507812 456.6875 246.519531 453.777344 246.832031 Z M 431.742188 302.800781 L 431.648438 298.664062 C 431.832031 300.226562 431.824219 301.640625 431.742188 302.800781 Z M 431.742188 302.800781 "/>
<path style=" stroke:none;fill-rule:nonzero;fill:rgb(100%,71.372549%,71.372549%);fill-opacity:1;" d="M 378.882812 169.417969 L 376.621094 115.441406 C 376.621094 115.441406 374.078125 83.394531 372.046875 72.203125 C 370.015625 61.011719 356.292969 64.066406 356.292969 64.066406 L 357.816406 96.109375 L 364.394531 128.90625 L 369.515625 173.5625 C 369.25 174.855469 369.101562 176.261719 369.101562 177.734375 C 369.101562 183.992188 371.710938 189.0625 374.933594 189.0625 C 378.152344 189.0625 380.761719 183.992188 380.761719 177.734375 C 380.761719 174.441406 380.035156 171.488281 378.882812 169.417969 Z M 378.882812 169.417969 "/>
<path style=" stroke:none;fill-rule:nonzero;fill:rgb(100%,71.372549%,71.372549%);fill-opacity:1;" d="M 268.773438 155.433594 C 271.179688 152.566406 274.058594 150.617188 276.648438 149.867188 L 307.070312 115.441406 C 307.070312 115.441406 309.613281 83.394531 311.644531 72.203125 C 313.675781 61.011719 327.398438 64.066406 327.398438 64.066406 L 325.875 96.109375 L 317.234375 130.699219 L 281.632812 160.953125 C 281.011719 162.089844 280.25 163.222656 279.335938 164.308594 C 275.003906 169.472656 269.128906 171.671875 266.214844 169.222656 C 263.296875 166.769531 264.441406 160.597656 268.773438 155.433594 Z M 268.773438 155.433594 "/>
<path style=" stroke:none;fill-rule:nonzero;fill:rgb(100%,71.372549%,71.372549%);fill-opacity:1;" d="M 335.710938 59.742188 L 339.242188 46.160156 L 352.988281 45.5 L 357.105469 64.21875 Z M 335.710938 59.742188 "/>
<use xlink:href="#surface5" mask="url(#mask0)"/>
<path style=" stroke:none;fill-rule:nonzero;fill:rgb(100%,71.372549%,71.372549%);fill-opacity:1;" d="M 300.605469 282.230469 L 287.726562 281.496094 L 289.414062 321.054688 L 298.140625 321.554688 Z M 300.605469 282.230469 "/>
<path style=" stroke:none;fill-rule:nonzero;fill:rgb(18.431373%,18.039216%,25.490196%);fill-opacity:1;" d="M 288.300781 308.546875 L 292.769531 310.589844 L 292.765625 313.300781 C 292.765625 313.300781 293.84375 310.160156 299.636719 309.476562 L 300.324219 312.105469 C 300.324219 312.105469 302.570312 314.6875 302.1875 319.355469 L 300.710938 331.851562 L 296.347656 331.75 L 295.640625 323.054688 C 295.640625 323.054688 294.4375 321.082031 288.894531 330.457031 C 288.894531 330.457031 282.792969 332 273.339844 328.824219 C 272.042969 328.390625 271.140625 327.175781 271.15625 325.804688 C 271.164062 325.046875 271.460938 324.347656 272.410156 324.097656 C 274.824219 323.457031 277.179688 324.269531 278.738281 322.339844 C 280.296875 320.410156 288.300781 308.546875 288.300781 308.546875 Z M 288.300781 308.546875 "/>
<path style=" stroke:none;fill-rule:nonzero;fill:rgb(100%,71.372549%,71.372549%);fill-opacity:1;" d="M 369.714844 282.230469 L 356.839844 281.496094 L 358.527344 321.054688 L 367.253906 321.554688 Z M 369.714844 282.230469 "/>
<path style=" stroke:none;fill-rule:nonzero;fill:rgb(18.431373%,18.039216%,25.490196%);fill-opacity:1;" d="M 357.410156 308.546875 L 361.882812 310.589844 L 361.878906 313.300781 C 361.878906 313.300781 362.957031 310.160156 368.746094 309.476562 L 369.4375 312.105469 C 369.4375 312.105469 371.683594 314.6875 371.296875 319.355469 L 369.824219 331.851562 L 365.457031 331.75 L 364.753906 323.054688 C 364.753906 323.054688 363.550781 321.082031 358.007812 330.457031 C 358.007812 330.457031 351.90625 332 342.453125 328.824219 C 341.152344 328.390625 340.25 327.175781 340.269531 325.804688 C 340.277344 325.046875 340.574219 324.347656 341.519531 324.097656 C 343.933594 323.457031 346.289062 324.269531 347.847656 322.339844 C 349.40625 320.410156 357.410156 308.546875 357.410156 308.546875 Z M 357.410156 308.546875 "/>
<path style=" stroke:none;fill-rule:nonzero;fill:rgb(100%,71.372549%,71.372549%);fill-opacity:1;" d="M 361.527344 38.898438 C 361.527344 47.324219 354.703125 54.15625 346.28125 54.15625 C 337.863281 54.15625 331.039062 47.324219 331.039062 38.898438 C 331.039062 30.46875 337.863281 23.636719 346.28125 23.636719 C 354.703125 23.636719 361.527344 30.46875 361.527344 38.898438 Z M 361.527344 38.898438 "/>
<path style=" stroke:none;fill-rule:nonzero;fill:rgb(18.431373%,18.039216%,25.490196%);fill-opacity:1;" d="M 354.929688 41.433594 C 354.929688 41.433594 348.226562 30.457031 341.515625 31.667969 C 334.804688 32.878906 331.308594 33.972656 331.308594 33.972656 C 331.308594 33.972656 328.578125 25.222656 337.75 21.023438 C 337.75 21.023438 324.769531 10.140625 338.601562 3.160156 C 352.4375 -3.820312 361.046875 2.945312 361.046875 2.945312 C 361.046875 2.945312 372.5 12.664062 359.804688 21.664062 C 359.804688 21.664062 370.792969 34.191406 359.695312 46.160156 C 359.695312 46.160156 361.652344 37.046875 358.988281 38.914062 C 356.320312 40.785156 354.929688 41.433594 354.929688 41.433594 Z M 354.929688 41.433594 "/>
<path style=" stroke:none;fill-rule:nonzero;fill:rgb(47.843137%,43.921569%,72.54902%);fill-opacity:1;" d="M 356.546875 60.757812 L 335.710938 58.214844 L 319.703125 71.1875 C 319.703125 71.1875 311.742188 93.390625 317.671875 106.792969 C 317.8125 107.113281 317.925781 129.429688 317.925781 129.429688 L 362.195312 129.429688 C 362.195312 129.429688 362.152344 114.242188 363.84375 108.738281 C 364.082031 107.953125 364.359375 107.367188 364.679688 107.046875 C 367.21875 104.503906 373.316406 88.226562 370.269531 81.105469 C 367.21875 73.984375 356.546875 60.757812 356.546875 60.757812 Z M 356.546875 60.757812 "/>
<path style=" stroke:none;fill-rule:nonzero;fill:rgb(18.431373%,18.039216%,25.490196%);fill-opacity:1;" d="M 317.671875 128.410156 L 289.722656 217.429688 L 283.625 287.625 L 300.648438 287.625 L 315.132812 222.515625 L 335.074219 184.828125 L 354.769531 292.710938 L 371.953125 292.710938 L 371.539062 146.722656 L 362.15625 128.410156 Z M 317.671875 128.410156 "/>
<path style=" stroke:none;fill-rule:nonzero;fill:rgb(24.705882%,23.921569%,33.72549%);fill-opacity:1;" d="M 0 329.808594 L 512 329.808594 L 512 331.371094 L 0 331.371094 Z M 0 329.808594 "/>
<path style=" stroke:none;fill-rule:nonzero;fill:rgb(24.705882%,23.921569%,33.72549%);fill-opacity:1;" d="M 262.449219 146.429688 C 257.375 138.246094 245.535156 136.324219 236.742188 140.226562 C 227.945312 144.128906 221.867188 152.449219 217.734375 161.144531 C 213.601562 169.839844 211.003906 179.207031 206.753906 187.847656 C 194.257812 213.265625 168.953125 229.871094 153.03125 253.296875 C 141.070312 270.894531 134.738281 292.265625 135.175781 313.550781 C 135.339844 321.703125 136.660156 330.277344 141.742188 336.648438 C 149.285156 346.109375 162.640625 348.046875 174.667969 349.292969 C 181.652344 350.015625 190.226562 349.996094 193.824219 343.957031 C 195.246094 341.570312 179.957031 333.238281 180.199219 330.46875 C 181.523438 315.519531 198.421875 306.027344 199.742188 291.082031 C 201.820312 301.496094 199.160156 312.25 199.578125 322.859375 C 200 333.472656 205.226562 345.476562 215.605469 347.671875 C 218.808594 348.347656 222.425781 347.878906 224.855469 345.679688 C 227.28125 343.480469 227.992188 339.328125 225.828125 336.867188 C 228.042969 339.132812 231.78125 339.722656 234.582031 338.246094 C 237.386719 336.773438 239.019531 333.355469 238.414062 330.246094 C 237.964844 327.960938 236.492188 326.035156 235.214844 324.089844 C 228.300781 313.535156 226.496094 299.78125 230.460938 287.796875 C 237.46875 266.613281 260.476562 252.789062 264.375 230.816406 C 267.269531 214.5 259.011719 196.015625 267.777344 181.957031 C 271.726562 175.621094 278.433594 171.625 283.78125 166.421875 C 289.128906 161.214844 293.3125 153.25 290.25 146.4375 L 262.910156 146.410156 "/>
<path style=" stroke:none;fill-rule:nonzero;fill:rgb(18.431373%,18.039216%,25.490196%);fill-opacity:1;" d="M 178.136719 333.425781 C 177.457031 333.425781 176.757812 333.246094 176.085938 332.882812 C 174.535156 332.050781 173.363281 330.402344 173.105469 328.6875 C 172.671875 325.832031 174.03125 323.058594 175.121094 320.832031 C 178.109375 314.738281 181.058594 308.222656 181.496094 301.453125 C 181.96875 294.0625 178.976562 287.210938 173.867188 284 C 170.066406 281.613281 164.996094 281 159.589844 282.273438 C 154.796875 283.402344 150.492188 285.707031 145.765625 288.378906 C 145.390625 288.59375 144.914062 288.460938 144.703125 288.085938 C 144.488281 287.707031 144.621094 287.230469 144.996094 287.019531 C 149.65625 284.386719 154.246094 281.925781 159.230469 280.753906 C 165.050781 279.382812 170.542969 280.066406 174.695312 282.675781 C 180.285156 286.191406 183.5625 293.597656 183.054688 301.554688 C 182.601562 308.609375 179.578125 315.285156 176.523438 321.519531 C 175.476562 323.65625 174.289062 326.082031 174.648438 328.453125 C 174.832031 329.679688 175.707031 330.90625 176.824219 331.507812 C 177.367188 331.796875 178.195312 332.0625 179.058594 331.660156 C 179.449219 331.476562 179.914062 331.648438 180.09375 332.039062 C 180.277344 332.429688 180.109375 332.894531 179.714844 333.078125 C 179.214844 333.308594 178.679688 333.425781 178.136719 333.425781 Z M 178.136719 333.425781 "/>
<path style=" stroke:none;fill-rule:nonzero;fill:rgb(18.431373%,18.039216%,25.490196%);fill-opacity:1;" d="M 237.949219 145.890625 C 236.929688 148.695312 238.292969 151.832031 240.179688 154.140625 C 242.070312 156.445312 244.496094 158.300781 246.164062 160.773438 C 249.652344 165.957031 249.128906 173.046875 246.449219 178.695312 C 243.765625 184.339844 239.246094 188.863281 234.808594 193.265625 C 235.136719 191.378906 234.183594 189.472656 232.882812 188.066406 C 231.585938 186.660156 229.949219 185.613281 228.496094 184.367188 C 221.726562 178.558594 219.609375 167.976562 223.621094 160.003906 "/>
<path style=" stroke:none;fill-rule:nonzero;fill:rgb(24.705882%,23.921569%,33.72549%);fill-opacity:1;" d="M 145.5 312.585938 C 139.765625 311.882812 134.925781 317.046875 129.203125 317.835938 C 122.585938 318.753906 116.5 313.511719 113.554688 307.511719 C 110.613281 301.507812 109.855469 294.695312 107.832031 288.324219 C 105.808594 281.953125 101.898438 275.5 95.535156 273.476562 C 92.863281 272.625 89.839844 272.671875 87.359375 273.976562 C 84.878906 275.28125 83.058594 277.941406 83.121094 280.746094 C 83.199219 284.199219 85.84375 286.960938 87.445312 290.015625 C 89.992188 294.882812 89.914062 300.640625 91.039062 306.015625 C 93.746094 318.941406 104.25 329.898438 117.035156 333.144531 C 123.648438 334.824219 131.050781 334.4375 136.78125 330.730469 C 142.507812 327.023438 146 319.554688 143.878906 313.0625 "/>
</g>
</svg>
